<?xml version="1.0" encoding="UTF-8"?>
<svg id="_레이어_2" data-name="레이어 2" xmlns="http://www.w3.org/2000/svg" viewBox="0 0 954.96 755.52">
  <defs>
    <style>
      .cls-1 {
        fill: #fff;
      }
    </style>
  </defs>
  <g id="_레이어_1-2" data-name="레이어 1">
    <g>
      <path class="cls-1" d="M522.39,274.98c0-26.94-21.84-48.78-48.77-48.78s-48.77,21.84-48.77,48.78,21.84,48.78,48.77,48.78,48.77-21.84,48.77-48.78ZM375.34,322.52c0-18.45-14.95-33.4-33.39-33.4s-33.39,14.95-33.39,33.4,14.95,33.4,33.39,33.4,33.39-14.95,33.39-33.4ZM646.03,322.52c0-18.45-14.95-33.4-33.39-33.4s-33.39,14.96-33.39,33.4,14.95,33.4,33.39,33.4,33.39-14.96,33.39-33.4ZM373.23,354.94l-26.19,78.61h121.45s-38.26-114.85-38.26-114.85c-11.96,5.92-21.97,13.73-30.85,23.16-5.83,6.02-10.49,12.54-15.14,19.86l-11.01-6.77ZM509.29,318.51c-21.65,16.94-50.05,16.87-71.38-.11l35.72,107.06,35.66-106.95ZM581.3,354.96c-6.2,3.25-10.81,6.78-15.91,10.94-11.12-19.97-27.35-36.62-48.35-47.2l-38.26,114.86h128.71s-26.19-78.6-26.19-78.6ZM336.81,433.55l-26.18-78.57c-14.72,7.65-25.73,19.44-33.36,33.76-7.13,13.83-10.41,28.94-10.79,44.83l70.33-.03ZM688.05,433.57c-.28-14.12-2.98-28.04-8.89-41.07-7.49-15.97-19.35-29.21-35.2-37.54l-26.19,78.59,70.28.02ZM364.98,356.39c-15.07,9.36-31.6,9.11-46.09-.1l23.07,69.06,23.02-68.96ZM635.67,356.35c-14.72,9.25-31.53,9.29-46.1-.04l23.05,69.19,23.04-69.14Z"/>
      <path d="M1.44,0c.24.38.8.66,1.62.93l306.95,100.23v60s-64.28,0-64.28,0c-7.16.89-13.28,3.8-18.54,8.49-5.78,5.2-8.56,12-10.16,19.84v264.67c2.39,16.37,15.04,28.57,31.59,28.58l61.39.03-.03,272.73h-.74S0,653.96,0,653.96V0s1.44,0,1.44,0Z"/>
      <path d="M954.96,101.54v653.73s-.48.25-.48.25l-309.26-101.24-.02-171.52h61.63c17.13-.09,30.65-13.47,31.48-30.52l-.11-260.44c0-15.78-13.2-30.3-28.89-30.38l-64.1-.29L645.45,0h.45l309.06,101.54Z"/>
      <polygon points="323.38 755.52 322.76 755.52 322.73 482.77 398.47 482.77 473.63 593.47 548.75 482.76 632.48 482.77 632.47 654.31 323.38 755.52"/>
      <polygon points="632.67 0 632.46 161.16 322.76 161.17 322.7 101.19 629.88 .88 631.55 0 632.67 0"/>
      <path d="M581.3,354.96l26.19,78.59h-128.71s38.26-114.85,38.26-114.85c21,10.58,37.23,27.23,48.35,47.2,5.1-4.16,9.71-7.69,15.91-10.94Z"/>
      <path d="M373.23,354.94l11.01,6.77c4.65-7.32,9.31-13.84,15.14-19.86,8.87-9.43,18.89-17.24,30.85-23.16l38.26,114.86h-121.45s26.19-78.61,26.19-78.61Z"/>
      <ellipse cx="473.62" cy="274.98" rx="48.77" ry="48.78"/>
      <path d="M336.81,433.55l-70.33.03c.39-15.89,3.66-31,10.79-44.83,7.63-14.32,18.64-26.11,33.36-33.76l26.18,78.57Z"/>
      <path d="M688.05,433.57l-70.28-.02,26.19-78.59c15.85,8.34,27.71,21.58,35.2,37.54,5.91,13.03,8.62,26.95,8.89,41.07Z"/>
      <ellipse cx="341.95" cy="322.52" rx="33.39" ry="33.4"/>
      <ellipse cx="612.63" cy="322.52" rx="33.39" ry="33.4"/>
      <path d="M509.29,318.51l-35.66,106.95-35.72-107.06c21.32,16.99,49.73,17.05,71.38.11Z"/>
      <path d="M364.98,356.39l-23.02,68.96-23.07-69.06c14.48,9.21,31.02,9.46,46.09.1Z"/>
      <path d="M635.67,356.35l-23.04,69.14-23.05-69.19c14.56,9.34,31.37,9.29,46.1.04Z"/>
    </g>
  </g>
</svg>