<svg xmlns="http://www.w3.org/2000/svg" xmlns:xlink="http://www.w3.org/1999/xlink" width="32.096" height="32.096" viewBox="0 0 32.096 32.096">
  <defs>
    <filter id="타원_41" x="0" y="0" width="32.096" height="32.096" filterUnits="userSpaceOnUse">
      <feOffset dx="1" dy="1" input="SourceAlpha"/>
      <feGaussianBlur stdDeviation="0.5" result="blur"/>
      <feFlood flood-opacity="0.231"/>
      <feComposite operator="in" in2="blur"/>
      <feComposite in="SourceGraphic"/>
    </filter>
    <clipPath id="clip-path">
      <circle id="타원_42" data-name="타원 42" cx="9.899" cy="9.899" r="9.899" transform="matrix(0.966, 0.259, -0.259, 0.966, 902.733, -1572.242)" fill="#e9b6cc"/>
    </clipPath>
  </defs>
  <g id="_아이콘_저장표시_food" data-name="[아이콘] 저장표시 food" transform="translate(-917.684 1611.167)">
    <g transform="matrix(1, 0, 0, 1, 917.68, -1611.17)" filter="url(#타원_41)">
      <g id="타원_41-2" data-name="타원 41" transform="matrix(0.97, 0.26, -0.26, 0.97, 6.65, 0.5)" fill="#fff">
        <path d="M 11.87845706939697 22.25691795349121 C 6.155756950378418 22.25691795349121 1.499997019767761 17.60115623474121 1.499997019767761 11.87845706939697 C 1.499997019767761 6.155756950378418 6.155756950378418 1.499997019767761 11.87845706939697 1.499997019767761 C 17.60115623474121 1.499997019767761 22.25691795349121 6.155756950378418 22.25691795349121 11.87845706939697 C 22.25691795349121 17.60115623474121 17.60115623474121 22.25691795349121 11.87845706939697 22.25691795349121 Z" stroke="none"/>
        <path d="M 11.87845706939697 2.999996185302734 C 6.982856750488281 2.999996185302734 2.999996185302734 6.982856750488281 2.999996185302734 11.87845706939697 C 2.999996185302734 16.77405738830566 6.982856750488281 20.75691604614258 11.87845706939697 20.75691604614258 C 16.77405738830566 20.75691604614258 20.75691604614258 16.77405738830566 20.75691604614258 11.87845706939697 C 20.75691604614258 6.982856750488281 16.77405738830566 2.999996185302734 11.87845706939697 2.999996185302734 M 11.87845706939697 -3.814697265625e-06 C 18.43874740600586 -3.814697265625e-06 23.75691795349121 5.318166732788086 23.75691795349121 11.87845706939697 C 23.75691795349121 18.43874740600586 18.43874740600586 23.75691795349121 11.87845706939697 23.75691795349121 C 5.318166732788086 23.75691795349121 -3.814697265625e-06 18.43874740600586 -3.814697265625e-06 11.87845706939697 C -3.814697265625e-06 5.318166732788086 5.318166732788086 -3.814697265625e-06 11.87845706939697 -3.814697265625e-06 Z" stroke="none" fill="#fff"/>
      </g>
    </g>
    <g id="마스크_그룹_4" data-name="마스크 그룹 4" transform="translate(23 -36)" clip-path="url(#clip-path)">
      <g id="레이어_1" data-name="레이어 1" transform="translate(898.05 -1590.859)">
        <g id="그룹_90" data-name="그룹 90" transform="translate(-0.98 4.003)">
          <path id="패스_417" data-name="패스 417" d="M6.654,69.526A8.549,8.549,0,0,1,5.4,65.612V63.117l.045-.764.124-1.048.081-.616.066-.511.278-1.6.285-1.469.167-.937.109-.505.272-1.508.124-.973.092-.8.148-1.593.081-.937.122-1.916a13.757,13.757,0,0,0,0-1.67L7.27,44.058l-.03-.794-.077-.535A11.671,11.671,0,0,0,5.746,38.45l-.573-1.056-.423-.719-.207-.331a39.566,39.566,0,0,1-3.08-6.66,29.621,29.621,0,0,1-1.1-3.741l-.113-.622a14.443,14.443,0,0,1-.184-1.771L.02,22.668l0-2.312.047-1.527L.1,17.843l.047-.6.086-1,.116-.98.077-.7.113-.706.1-.633.193-.967.248-1.164.079-.406.12-.486.083-.409.622-2.564.06-.274a9.347,9.347,0,0,1,.945-2.308A8.516,8.516,0,0,1,6.124,1.255,8.037,8.037,0,0,1,9.14.106a4.566,4.566,0,0,1,1.2-.1A4.6,4.6,0,0,1,11.961.28,10.356,10.356,0,0,1,16.1,3.2a22.01,22.01,0,0,1,1.8,2.109,26.19,26.19,0,0,1,2.485,3.946l1.527,3.159.556,1.206a30,30,0,0,1,1.775,5.1l.426,1.651.081.445.075.376.312,1.9a20.386,20.386,0,0,1,.207,3.583l-.028,2.78-.094,1.538L25.1,32.3l-.751,5.608-.319,1.384-.162.856-.156,1.074-.614,3.5-.143.973-.086.483a25.943,25.943,0,0,0-.4,3.661l-.009,3.242.21,1.966.092.886.118.813.073.582.126.858.068.543.115.871.122,1.183.207,1.384a5.958,5.958,0,0,1-.038,1.713,14.177,14.177,0,0,1-.408,2.087,9.9,9.9,0,0,1-1.471,3l-.274.385-.988,1.166-.37.37-.945.772a11.323,11.323,0,0,1-3.5,1.668,1.878,1.878,0,0,1-.706.19l-.471.083-.61.086h-.6l-.918-.169-.755-.141a5.374,5.374,0,0,1-1.273-.436,6.511,6.511,0,0,1-1.809-1.215,13,13,0,0,1-1.794-2.192ZM22.59,35.644a.364.364,0,0,0,.353-.359.369.369,0,0,0-.344-.346l-4.216,0V32.025h4.265a.367.367,0,0,0,.338-.362.383.383,0,0,0-.306-.346h-4.3V28.824h4.449a.391.391,0,0,0,.353-.383.358.358,0,0,0-.353-.329L18.383,28.1l-.006-.866a.344.344,0,0,0-.389-.338.338.338,0,0,0-.3.381l-.006.825H14.908V25.5h8.147a.34.34,0,0,0,.342-.364.369.369,0,0,0-.353-.338l-8.129,0-.008-.655a.341.341,0,0,0-.347-.349.337.337,0,0,0-.359.329l-.015.676H10.878V22.022h6.761v1.711a.347.347,0,0,0,.349.378.352.352,0,0,0,.338-.342l.008-1.747H22.28a.348.348,0,0,0,.317-.308.341.341,0,0,0-.239-.372.891.891,0,0,0-.445-.015H18.332l0-2.513h3.822a.357.357,0,0,0,.368-.357.37.37,0,0,0-.334-.349h-3.86l0-2.552h2.442a.352.352,0,0,0,.361-.357.334.334,0,0,0-.329-.334l-2.474-.006L18.326,14a.338.338,0,0,0-.376-.317.354.354,0,0,0-.317.353v.828H15.128l0-2.785h3.692a.354.354,0,0,0,.372-.344.364.364,0,0,0-.351-.368H15.126V8.9L17.393,8.9a.326.326,0,0,0,.366-.312.335.335,0,0,0-.295-.368L15.128,8.2l-.011-2.072a.345.345,0,0,0-.378-.312.349.349,0,0,0-.306.357l-.006,2.032H6.622L6.614,4.6c0-.193-.218-.308-.364-.306a.364.364,0,0,0-.342.331L5.9,8.2a.346.346,0,0,0-.332.351.338.338,0,0,0,.334.349v2.455l-2.3.011a.352.352,0,1,0-.013.7l2.318,0V14.86l-3.863,0a.336.336,0,0,0-.325.37.346.346,0,0,0,.4.321H5.906v2.552H2.336a.361.361,0,0,0-.327.355.337.337,0,0,0,.323.342l3.674.011a.363.363,0,0,0,.526,0h3.638v2.513H2.411a.361.361,0,0,0-.366.347.366.366,0,0,0,.329.347h7.8l-.006,2.776H6.385l-.015-.952a.324.324,0,0,0-.357-.312.344.344,0,0,0-.336.334l-.011.93-2.8.009a.35.35,0,1,0,.047.7H5.669v2.6l-1.713,0a.352.352,0,0,0-.353.366.36.36,0,0,0,.353.344l1.713.008V31.3l-.208.008a.355.355,0,0,0-.378.346.341.341,0,0,0,.338.359,1.14,1.14,0,0,1,.246.015l.008,3.5a.359.359,0,0,0,.415.351c.235-.045.314-.244.287-.515a.423.423,0,0,0,.434.274H14.2v3.2H9.007a.342.342,0,0,0-.325.359.338.338,0,0,0,.332.334l2.791-.006,2.41.011-.008,2.806a1.522,1.522,0,0,0,.013.5.346.346,0,0,0,.389.265.339.339,0,0,0,.295-.316l.009-3.257h2.77c.092.135.192.254.347.252a.526.526,0,0,0,.359-.246l3.148-.011a.333.333,0,0,0,.329-.364.359.359,0,0,0-.351-.327H18.386v-3.2h4.207Zm-3.029,24.3a.34.34,0,0,0,.342-.394.356.356,0,0,0-.4-.308H8.124a.341.341,0,0,0-.349.409c.026.208.188.3.423.3l11.363-.006Zm1.51,3.4a.356.356,0,1,0,.017-.712H8.41A.353.353,0,0,0,8.072,63a.362.362,0,0,0,.332.342H21.072Zm-1.317,3.615a.369.369,0,0,0,.325-.368c-.008-.113-.141-.336-.316-.336l-11.639,0c-.207,0-.316.235-.308.374a.336.336,0,0,0,.306.334Zm-2.52,3.307a.369.369,0,0,0,.327-.379.346.346,0,0,0-.319-.327h-7.4a.344.344,0,0,0-.331.362.362.362,0,0,0,.325.34Z" transform="translate(-0.02 -0.003)" fill="#e58b92"/>
          <path id="패스_418" data-name="패스 418" d="M39.432,66.11a.35.35,0,0,0-.344-.364.333.333,0,0,0-.355.329l-.015,1H35.18V64.29h7.807v2.785H39.434l0-.967Z" transform="translate(-28.576 -52.216)" fill="#e58b92"/>
          <rect id="사각형_2166" data-name="사각형 2166" width="7.811" height="2.464" transform="translate(6.604 8.9)" fill="#e58b92"/>
          <rect id="사각형_2167" data-name="사각형 2167" width="2.513" height="6.761" transform="translate(10.856 21.326) rotate(-90)" fill="#e58b92"/>
          <path id="패스_419" data-name="패스 419" d="M61.382,84.977a.649.649,0,0,0,.086.383l-3.638,0,0-2.554h3.553l-.006,2.165Z" transform="translate(-46.972 -67.258)" fill="#e58b92"/>
          <rect id="사각형_2168" data-name="사각형 2168" width="3.548" height="2.554" transform="translate(6.604 15.552)" fill="#e58b92"/>
          <path id="패스_420" data-name="패스 420" d="M82.7,85.362H80.13a.842.842,0,0,0,.062-.282V82.812l2.509,0v2.551Z" transform="translate(-65.084 -67.258)" fill="#e58b92"/>
          <path id="패스_421" data-name="패스 421" d="M41.658,173.4l-7.43.006c-.178,0-.265.092-.394.231l0-3.146h7.821l.006,2.909Z" transform="translate(-27.48 -138.47)" fill="#e58b92"/>
          <rect id="사각형_2169" data-name="사각형 2169" width="7.822" height="2.498" transform="translate(6.354 28.816)" fill="#e58b92"/>
          <path id="패스_422" data-name="패스 422" d="M38.348,135.78h3.313l0,2.6H33.84v-2.6h3.8l.008,1.653a.343.343,0,0,0,.355.342.339.339,0,0,0,.338-.351l.011-1.643Z" transform="translate(-27.488 -110.279)" fill="#e58b92"/>
          <rect id="사각형_2170" data-name="사각형 2170" width="2.776" height="3.198" transform="translate(14.888 35.639)" fill="#e58b92"/>
          <rect id="사각형_2171" data-name="사각형 2171" width="2.776" height="2.913" transform="translate(14.888 32.02)" fill="#e58b92"/>
          <rect id="사각형_2172" data-name="사각형 2172" width="2.776" height="2.498" transform="translate(14.888 28.814)" fill="#e58b92"/>
        </g>
      </g>
    </g>
  </g>
</svg>
