<svg xmlns="http://www.w3.org/2000/svg" xmlns:xlink="http://www.w3.org/1999/xlink" width="32.096" height="32.096" viewBox="0 0 32.096 32.096">
  <defs>
    <filter id="타원_41" x="0" y="0" width="32.096" height="32.096" filterUnits="userSpaceOnUse">
      <feOffset dx="1" dy="1" input="SourceAlpha"/>
      <feGaussianBlur stdDeviation="0.5" result="blur"/>
      <feFlood flood-opacity="0.231"/>
      <feComposite operator="in" in2="blur"/>
      <feComposite in="SourceGraphic"/>
    </filter>
    <clipPath id="clip-path">
      <circle id="타원_42" data-name="타원 42" cx="9.899" cy="9.899" r="9.899" transform="translate(0 0)" fill="#e9b6cc"/>
    </clipPath>
  </defs>
  <g id="_아이콘_저장표시_read" data-name="[아이콘] 저장표시 read" transform="matrix(0.966, 0.259, -0.259, 0.966, -1370.121, 1510.61)">
    <g transform="matrix(0.97, -0.26, 0.26, 0.97, 932.46, -1813.75)" filter="url(#타원_41)">
      <g id="타원_41-2" data-name="타원 41" transform="matrix(0.97, 0.26, -0.26, 0.97, 6.65, 0.5)" fill="#fff">
        <path d="M 11.87845706939697 22.25691795349121 C 6.155756950378418 22.25691795349121 1.499997019767761 17.60115623474121 1.499997019767761 11.87845706939697 C 1.499997019767761 6.155756950378418 6.155756950378418 1.499997019767761 11.87845706939697 1.499997019767761 C 17.60115623474121 1.499997019767761 22.25691795349121 6.155756950378418 22.25691795349121 11.87845706939697 C 22.25691795349121 17.60115623474121 17.60115623474121 22.25691795349121 11.87845706939697 22.25691795349121 Z" stroke="none"/>
        <path d="M 11.87845706939697 2.999996185302734 C 6.982856750488281 2.999996185302734 2.999996185302734 6.982856750488281 2.999996185302734 11.87845706939697 C 2.999996185302734 16.77405738830566 6.982856750488281 20.75691604614258 11.87845706939697 20.75691604614258 C 16.77405738830566 20.75691604614258 20.75691604614258 16.77405738830566 20.75691604614258 11.87845706939697 C 20.75691604614258 6.982856750488281 16.77405738830566 2.999996185302734 11.87845706939697 2.999996185302734 M 11.87845706939697 -3.814697265625e-06 C 18.43874740600586 -3.814697265625e-06 23.75691795349121 5.318166732788086 23.75691795349121 11.87845706939697 C 23.75691795349121 18.43874740600586 18.43874740600586 23.75691795349121 11.87845706939697 23.75691795349121 C 5.318166732788086 23.75691795349121 -3.814697265625e-06 18.43874740600586 -3.814697265625e-06 11.87845706939697 C -3.814697265625e-06 5.318166732788086 5.318166732788086 -3.814697265625e-06 11.87845706939697 -3.814697265625e-06 Z" stroke="none" fill="#fff"/>
      </g>
    </g>
    <g id="마스크_그룹_3" data-name="마스크 그룹 3" transform="translate(940.992 -1813.008)" clip-path="url(#clip-path)">
      <g id="레이어_1" data-name="레이어 1" transform="translate(-26.665 -18.554)">
        <g id="그룹_98" data-name="그룹 98" transform="matrix(0.891, 0.454, -0.454, 0.891, 35.392, 0)">
          <g id="그룹_96" data-name="그룹 96" transform="translate(3.591 33.91)">
            <g id="그룹_95" data-name="그룹 95" transform="translate(2.07 22.917)">
              <path id="패스_437" data-name="패스 437" d="M18.915,8.4,9.449,4.043A.372.372,0,0,0,9.01,4.2L.158,9.468l-.072-.5L.038,7.928a2.608,2.608,0,0,1,.01-.945V5.7L9.632,0l6.083,2.8.873.377a.647.647,0,0,0,.405.383l2.213,1.015.1.624a1.769,1.769,0,0,1,.006.715,16.008,16.008,0,0,1-.4,2.483Z" transform="translate(0 4.088)" fill="#fff"/>
              <path id="패스_438" data-name="패스 438" d="M16.938,7.193,9.859,3.922a.539.539,0,0,0-.636.022L1.538,8.52A8.205,8.205,0,0,1,0,5.4L9.067,0l9.311,4.293a2.391,2.391,0,0,1-.242.7,9.172,9.172,0,0,1-1.2,2.2Z" transform="translate(0.33 8.898)" fill="#fff"/>
              <path id="패스_439" data-name="패스 439" d="M16.064,6.325,9.835,3.437c-.288-.133-.546-.189-.775.077L.018,8.888a1.676,1.676,0,0,1,.046-.705l.074-.532.141-.932a2.1,2.1,0,0,1,.135-.652,1.486,1.486,0,0,1,.062-.5L9.827,0l8.686,4.009a2.314,2.314,0,0,0,.083.657l.18,1.244.065.924.115.983-1.756-.8a3.522,3.522,0,0,0-1.132-.685Z" transform="translate(0.133 0)" fill="#fff"/>
              <path id="패스_440" data-name="패스 440" d="M8.125,3.312a.586.586,0,0,0-.673-.006L2.173,6.444a4.213,4.213,0,0,1-.84-.56L0,4.518,7.593,0l6.941,3.2a11.511,11.511,0,0,1-2.062,2.12l-1.687-.779Z" transform="translate(2.299 13.483)" fill="#fff"/>
              <path id="패스_441" data-name="패스 441" d="M4.585,3.522a3.853,3.853,0,0,1-2.253.014l-.608-.087a.768.768,0,0,1-.417-.113A7.236,7.236,0,0,1,0,2.9L4.878,0l4,1.848A11.542,11.542,0,0,1,5.65,3.289a2.066,2.066,0,0,1-1.065.234Z" transform="translate(5.2 17.43)" fill="#fff"/>
            </g>
            <path id="패스_442" data-name="패스 442" d="M20.562,25.979c.028.062-.024.073-.08.04l-8.119-3.745a.557.557,0,0,0-.451-.062l-.31.119L2.924,27.487c-.05.046-.087-.018-.064-.075l.377-1.973.128-.6.089-.509.085-.447.231-1.7.091-.741.087-.985.087-.948.044-.557.073-.731.07-1.452v-1.72L4.15,13.169l-.065-.741-.048-.683-.081-.689A13.018,13.018,0,0,0,2.439,6.675c-.451-.831-.892-1.609-1.386-2.412L.02,2.342c-.044-.107-.018-.128.089-.1L3.928,4.011a.58.58,0,0,1,.427.189l6.152,2.841a.623.623,0,0,0,.689-.058L22.934,0c.083.177-.008.366-.028.548l-.051.462-.077.522-.06.522-.355,2.577L22.228,5.65l-.246,1.313-.262,1.17L21.5,9.458l-.072.562-.248,1.51-.407,2.12-.087.656-.089.517-.113.539-.08.52L20.272,17l-.058.914-.051.558-.028.652,0,3.218.072.528.087.777.105.92.091.816.072.6Z" transform="translate(0 0)" fill="#fff"/>
          </g>
          <g id="그룹_97" data-name="그룹 97" transform="translate(0 0)">
            <path id="패스_443" data-name="패스 443" d="M8.773,10.014c-.191.113-.175.064-.334-.01L0,6.116a10.163,10.163,0,0,1,2.316-3.55,11.39,11.39,0,0,1,1.675-1.3A8.956,8.956,0,0,1,7.214.084,5.121,5.121,0,0,1,8.642.025,4.558,4.558,0,0,1,9.985.277a10.077,10.077,0,0,1,3.123,1.838,11.232,11.232,0,0,1,1.323,1.3l.366.374a12.041,12.041,0,0,1,1.466,1.764Z" transform="translate(2.585 0)" fill="#e9b6cc"/>
            <path id="패스_444" data-name="패스 444" d="M.991,5.054A7.513,7.513,0,0,1,.555,3.675L.195,2.2,0,1.083,7.79,4.668l1.186.552L12.49,6.829l1.222.507A.441.441,0,0,0,14.2,7.29L26.448,0c.109.128.062.3.083.471a12.571,12.571,0,0,1,.081,1.73L26.6,3.576,13.982,11.083l-.409-.218L2.817,5.91c-.18-.083-.3-.1-.471-.183L.993,5.056Z" transform="translate(0.173 25.175)" fill="#e9b6cc"/>
            <path id="패스_445" data-name="패스 445" d="M0,4.227l.02-.759L.091,1.594.159.84l12.7,5.849c.53.244.556.077.876-.113L24.791,0c.375,1.017.642,2.036.92,3.071.036.131.109.232.051.375L13.755,10.584l-1.114-.53Z" transform="translate(0.016 17.112)" fill="#e9b6cc"/>
            <path id="패스_446" data-name="패스 446" d="M8.532,8.042,8.2,7.893.1,4.148.038,3.224C-.012,2.428,0,1.645,0,.854L12.683,6.7l1.158.528L25.993,0l.258,1.2.322,1.891-12.6,7.487-.483-.258Z" transform="translate(0 21.273)" fill="#e9b6cc"/>
            <path id="패스_447" data-name="패스 447" d="M.054,3.3c.022-.224.044-.413.072-.616L.262,1.7l.089-.637A1.957,1.957,0,0,0,.423.526L12.336,6.011A.542.542,0,0,0,12.928,6L23.015,0l.967,2.2.342.86L13.17,9.7c-.193.115-.205.117-.415.02L0,3.836Z" transform="translate(0.242 13.353)" fill="#e9b6cc"/>
            <path id="패스_448" data-name="패스 448" d="M.068,3.466.616.934l9.953,4.6a.441.441,0,0,0,.52,0L20.4,0c.612,1.155,1.152,2.3,1.694,3.461L12,9.462.021,3.939a.71.71,0,0,1,.048-.473Z" transform="translate(0.86 9.243)" fill="#e9b6cc"/>
            <path id="패스_449" data-name="패스 449" d="M2.157,5.739A.813.813,0,0,0,1.6,5.6L.65,3.381,0,1.6A7.358,7.358,0,0,0,1.037,2a1.131,1.131,0,0,0,.342.223L12.187,7.21l.6.228L25.291,0V1.017l-.02,1.277-.117,1.118L12.911,10.7,6.738,7.856c-.135-.062-.27-.03-.366-.177L2.157,5.737Z" transform="translate(1.482 29.589)" fill="#e9b6cc"/>
            <path id="패스_450" data-name="패스 450" d="M0,3.357C.274,2.49.389,1.567.707.66L9.061,4.508c.109.05.2.03.284.113a.388.388,0,0,0,.455.048L17.657,0a26.658,26.658,0,0,1,1.605,2.483L10.257,7.837c-.157.141-.272.081-.439,0L.888,3.729A4.233,4.233,0,0,0,0,3.357Z" transform="translate(1.629 6.137)" fill="#e9b6cc"/>
          </g>
        </g>
      </g>
    </g>
  </g>
</svg>
