<svg xmlns="http://www.w3.org/2000/svg" xmlns:xlink="http://www.w3.org/1999/xlink" width="32.096" height="32.096" viewBox="0 0 32.096 32.096">
  <defs>
    <filter id="타원_41" x="0" y="0" width="32.096" height="32.096" filterUnits="userSpaceOnUse">
      <feOffset dx="1" dy="1" input="SourceAlpha"/>
      <feGaussianBlur stdDeviation="0.5" result="blur"/>
      <feFlood flood-opacity="0.231"/>
      <feComposite operator="in" in2="blur"/>
      <feComposite in="SourceGraphic"/>
    </filter>
    <clipPath id="clip-path">
      <circle id="타원_42" data-name="타원 42" cx="9.899" cy="9.899" r="9.899" transform="matrix(0.966, 0.259, -0.259, 0.966, 922.733, -1687.242)" fill="#e9b6cc"/>
    </clipPath>
  </defs>
  <g id="_아이콘_저장표시_sport" data-name="[아이콘] 저장표시 sport" transform="translate(-1008.684 1611.167)">
    <g transform="matrix(1, 0, 0, 1, 1008.68, -1611.17)" filter="url(#타원_41)">
      <g id="타원_41-2" data-name="타원 41" transform="matrix(0.97, 0.26, -0.26, 0.97, 6.65, 0.5)" fill="#fff">
        <path d="M 11.87845706939697 22.25691795349121 C 6.155756950378418 22.25691795349121 1.499997019767761 17.60115623474121 1.499997019767761 11.87845706939697 C 1.499997019767761 6.155756950378418 6.155756950378418 1.499997019767761 11.87845706939697 1.499997019767761 C 17.60115623474121 1.499997019767761 22.25691795349121 6.155756950378418 22.25691795349121 11.87845706939697 C 22.25691795349121 17.60115623474121 17.60115623474121 22.25691795349121 11.87845706939697 22.25691795349121 Z" stroke="none"/>
        <path d="M 11.87845706939697 2.999996185302734 C 6.982856750488281 2.999996185302734 2.999996185302734 6.982856750488281 2.999996185302734 11.87845706939697 C 2.999996185302734 16.77405738830566 6.982856750488281 20.75691604614258 11.87845706939697 20.75691604614258 C 16.77405738830566 20.75691604614258 20.75691604614258 16.77405738830566 20.75691604614258 11.87845706939697 C 20.75691604614258 6.982856750488281 16.77405738830566 2.999996185302734 11.87845706939697 2.999996185302734 M 11.87845706939697 -3.814697265625e-06 C 18.43874740600586 -3.814697265625e-06 23.75691795349121 5.318166732788086 23.75691795349121 11.87845706939697 C 23.75691795349121 18.43874740600586 18.43874740600586 23.75691795349121 11.87845706939697 23.75691795349121 C 5.318166732788086 23.75691795349121 -3.814697265625e-06 18.43874740600586 -3.814697265625e-06 11.87845706939697 C -3.814697265625e-06 5.318166732788086 5.318166732788086 -3.814697265625e-06 11.87845706939697 -3.814697265625e-06 Z" stroke="none" fill="#fff"/>
      </g>
    </g>
    <g id="마스크_그룹_7" data-name="마스크 그룹 7" transform="translate(94 79)" clip-path="url(#clip-path)">
      <g id="레이어_1" data-name="레이어 1" transform="translate(934.764 -1697.118) rotate(41)">
        <g id="그룹_106" data-name="그룹 106" transform="translate(0 0)">
          <path id="패스_497" data-name="패스 497" d="M5.8,34.652,5.6,33.916a9.785,9.785,0,0,0-.872-2.034l-.44-.811-.5-.851-.256-.454,5.549-1.892a.285.285,0,0,0,.154-.357.3.3,0,0,0-.376-.176l-5.62,1.9c-.373-.671-.7-1.343-1-2.046s-.6-1.344-.856-2.076l5.466-1.857a.307.307,0,0,0,.225-.346.3.3,0,0,0-.343-.22L1.173,24.576l-.5-1.534C.526,22.592.429,22.157.324,21.7l-.08-.451-.1-.575c-.036-.2-.03-.395-.087-.621L5.475,18.21a.287.287,0,0,0,.184-.348.3.3,0,0,0-.384-.2L.037,19.442a4.632,4.632,0,0,0-.037-.5l.014-2.416.036-.777.017-1.085,4.579-1.553a.3.3,0,0,0,.2-.36.311.311,0,0,0-.41-.189L.125,14.03l.129-1.088c.023-.19.045-.362.058-.555.009-.158.051-.313.07-.473.03-.237.062-.466.106-.7L.624,10.5l.059-.315.2-.873L4,8.246A.292.292,0,0,0,4.159,7.9a.286.286,0,0,0-.351-.195l-2.766.925.056-.39.19-.792.153-.616.131-.557A9.664,9.664,0,0,1,2.459,3.89a6.836,6.836,0,0,1,1.522-2A6.812,6.812,0,0,1,7.6.1,3.1,3.1,0,0,1,8.688.023c.137.02.293.027.434.033a2.756,2.756,0,0,1,.87.225,7.444,7.444,0,0,1,1.8.968,6.2,6.2,0,0,1,.783.641l.745.747a22.1,22.1,0,0,1,3.526,4.923.376.376,0,0,1,.086.273l-4.552-.911a.3.3,0,0,0-.391.2.29.29,0,0,0,.22.359L17.286,8.5a1.472,1.472,0,0,1,.225.4l.71,1.491c.374.8.724,1.58,1.043,2.461l-4.387-.873-.756-.159a.3.3,0,0,0-.346.221.3.3,0,0,0,.246.36l4.89.982a1.221,1.221,0,0,0,.571.031l.649,2.168.421,1.74.056.282.094.508L16,17.175a.3.3,0,0,0-.374.173c-.041.109,0,.342.176.377l4.965,1,.087.354.108.976.059.652.008,2.682-4.965-1a.289.289,0,0,0-.123.565l5.074,1.031a4.42,4.42,0,0,1-.016.875l-.109,1.458-.1.845-.1.777-.084.546L16,27.567a.291.291,0,0,0-.36.209.287.287,0,0,0,.214.352l4.691.948L20.2,31.606l-.112.476a15.41,15.41,0,0,0-.388,1.982L12.38,32.582c-.151-.031-.195-.1-.365-.042L5.8,34.652Z" transform="translate(0 0)" fill="#d1fb54"/>
          <path id="패스_498" data-name="패스 498" d="M7.708,27.961l-.655.1a3.19,3.19,0,0,1-1.12-.1,6.763,6.763,0,0,1-1.112-.242l-.773-.282a5.562,5.562,0,0,1-1.5-1.006,7.679,7.679,0,0,1-.982-1.115l-.444-.616,3.5-1.215a.286.286,0,0,0,.165-.387.3.3,0,0,0-.4-.148L.82,24.195A6.907,6.907,0,0,1,.012,21.3l0-1.064,4.14-1.435a.3.3,0,0,0,.232-.343A.29.29,0,0,0,4,18.244L0,19.616l.041-.777.089-.886.139-1.011.25-1.472a1.609,1.609,0,0,1,.1-.452l4.658-1.612a.3.3,0,0,0,.195-.362.291.291,0,0,0-.395-.181L.758,14.356l.26-1.466.26-1.6.055-.494.1-1.006.055-.619.065-.607.028-.409.037-.405.03-.608.034-.745-.008-.9-.033-.981-.03-.642-.044-.46a3.947,3.947,0,0,0-.081-.844,1.6,1.6,0,0,0-.041-.458L7.651,0l7.521,1.514-.246,1.492a1.836,1.836,0,0,0-.084.427L14.618,4.7l-.192,1.12-.062.382-.111,1-.033.678-.037.343.006,2.9.073.575.1.87.136,1.248a1.1,1.1,0,0,1,.042.4l-3.789-1.313a.284.284,0,0,0-.356.176.292.292,0,0,0,.172.374l3.537,1.224a2.817,2.817,0,0,1,.55.2c.1.062.069.268.087.365l.059.32.064.508.073.736a2.761,2.761,0,0,0,.1.692l.019.313a1.319,1.319,0,0,1,.069.413l.065.513a2.092,2.092,0,0,1-.014.7l-3.922-1.363a.308.308,0,0,0-.39.148.29.29,0,0,0,.168.387l4.059,1.41-.089.566c-.016.1-.083.2-.047.313a1.456,1.456,0,0,0-.115.438,7.962,7.962,0,0,1-1.115,2.526L10.224,22.66a.3.3,0,0,0-.335.168.286.286,0,0,0,.147.373l3.347,1.165-.6.755-.39.421-.44.409a9.139,9.139,0,0,1-3.428,1.812,2.92,2.92,0,0,1-.808.2Z" transform="translate(4.46 33.13)" fill="#d1fb54"/>
        </g>
      </g>
    </g>
  </g>
</svg>
