<svg xmlns="http://www.w3.org/2000/svg" xmlns:xlink="http://www.w3.org/1999/xlink" width="32.096" height="32.096" viewBox="0 0 32.096 32.096">
  <defs>
    <filter id="타원_41" x="0" y="0" width="32.096" height="32.096" filterUnits="userSpaceOnUse">
      <feOffset dx="1" dy="1" input="SourceAlpha"/>
      <feGaussianBlur stdDeviation="0.5" result="blur"/>
      <feFlood flood-opacity="0.231"/>
      <feComposite operator="in" in2="blur"/>
      <feComposite in="SourceGraphic"/>
    </filter>
    <clipPath id="clip-path">
      <circle id="타원_42" data-name="타원 42" cx="9.899" cy="9.899" r="9.899" transform="matrix(0.966, 0.259, -0.259, 0.966, 863.733, -1687.242)" fill="#e9b6cc"/>
    </clipPath>
  </defs>
  <g id="_아이콘_저장표시_stay" data-name="[아이콘] 저장표시 stay" transform="translate(-949.684 1611.167)">
    <g transform="matrix(1, 0, 0, 1, 949.68, -1611.17)" filter="url(#타원_41)">
      <g id="타원_41-2" data-name="타원 41" transform="matrix(0.97, 0.26, -0.26, 0.97, 6.65, 0.5)" fill="#fff">
        <path d="M 11.87845706939697 22.25691795349121 C 6.155756950378418 22.25691795349121 1.499997019767761 17.60115623474121 1.499997019767761 11.87845706939697 C 1.499997019767761 6.155756950378418 6.155756950378418 1.499997019767761 11.87845706939697 1.499997019767761 C 17.60115623474121 1.499997019767761 22.25691795349121 6.155756950378418 22.25691795349121 11.87845706939697 C 22.25691795349121 17.60115623474121 17.60115623474121 22.25691795349121 11.87845706939697 22.25691795349121 Z" stroke="none"/>
        <path d="M 11.87845706939697 2.999996185302734 C 6.982856750488281 2.999996185302734 2.999996185302734 6.982856750488281 2.999996185302734 11.87845706939697 C 2.999996185302734 16.77405738830566 6.982856750488281 20.75691604614258 11.87845706939697 20.75691604614258 C 16.77405738830566 20.75691604614258 20.75691604614258 16.77405738830566 20.75691604614258 11.87845706939697 C 20.75691604614258 6.982856750488281 16.77405738830566 2.999996185302734 11.87845706939697 2.999996185302734 M 11.87845706939697 -3.814697265625e-06 C 18.43874740600586 -3.814697265625e-06 23.75691795349121 5.318166732788086 23.75691795349121 11.87845706939697 C 23.75691795349121 18.43874740600586 18.43874740600586 23.75691795349121 11.87845706939697 23.75691795349121 C 5.318166732788086 23.75691795349121 -3.814697265625e-06 18.43874740600586 -3.814697265625e-06 11.87845706939697 C -3.814697265625e-06 5.318166732788086 5.318166732788086 -3.814697265625e-06 11.87845706939697 -3.814697265625e-06 Z" stroke="none" fill="#fff"/>
      </g>
    </g>
    <g id="마스크_그룹_5" data-name="마스크 그룹 5" transform="translate(94 79)" clip-path="url(#clip-path)">
      <g id="레이어_1" data-name="레이어 1" transform="translate(876.007 -1703.374) rotate(41)">
        <g id="그룹_108" data-name="그룹 108" transform="translate(0 -0.001)">
          <path id="패스_505" data-name="패스 505" d="M33.867,191.015l.086-.764.086-.6.132-1.563.09-1.034.044-.431.038-.7.046-1.168c.014-.329.02-.635.008-.966l-.042-1.265-.028-.882a1.446,1.446,0,0,1-.03-.4,2.726,2.726,0,0,1-.024-.95l19.012-12.72-.13,1.375-.122.914-.645,4.8a24.746,24.746,0,0,0-.733,3.872l-.4,2.279-.3,1.776a5.276,5.276,0,0,1-.136.691l-17.633,11.8c-.072-.14.022-.243.04-.347l.323-1.711.14-.772.18-1.234Zm2.078-1.425a.461.461,0,0,0,.647.313l12.337-8.249a.827.827,0,0,0,.437-.667l.689-7.012.1-.854a.443.443,0,0,0-.154-.475.4.4,0,0,0-.475.04L35.8,181.873a.39.39,0,0,0-.162.367l.3,1.735a21.82,21.82,0,0,1,.052,4.595,3.25,3.25,0,0,0-.044,1.02Z" transform="translate(-26.538 -134.123)" fill="#03ade6"/>
          <path id="패스_506" data-name="패스 506" d="M4.745,11.63,5.6,7.969a11.434,11.434,0,0,1,.878-2.5A8.9,8.9,0,0,1,7.889,3.2l.485-.517a10.413,10.413,0,0,1,2.479-1.8A9.363,9.363,0,0,1,13.218.121,3.8,3.8,0,0,1,14.093,0c.377.006.745.018,1.124.042a7.561,7.561,0,0,1,2.7,1.032,10.314,10.314,0,0,1,1.8,1.361c.09.086.218.128.275.267L4.46,13.091a10.092,10.092,0,0,1,.285-1.461Z" transform="translate(-3.57 0.001)" fill="#02ade6"/>
          <path id="패스_507" data-name="패스 507" d="M31.39,82.747,8.472,98.086c-.383-.832-.695-1.7-1.012-2.585L30.472,80.1C30.837,80.972,31.113,81.85,31.39,82.747Z" transform="translate(-5.971 -64.112)" fill="#02ade6"/>
          <path id="패스_508" data-name="패스 508" d="M54.31,149.033,35.146,161.859a1.116,1.116,0,0,1-.1-.479,14.109,14.109,0,0,0-.673-2.393L54.418,145.57v2.659a2.233,2.233,0,0,1-.108.8Z" transform="translate(-27.51 -116.514)" fill="#02ade6"/>
          <path id="패스_509" data-name="패스 509" d="M51.714,309.908l.16,1.467L35.6,322.265a9.466,9.466,0,0,1-.95-1.108,7.974,7.974,0,0,1-.942-1.437l17.718-11.86a1.891,1.891,0,0,1,.1.74.964.964,0,0,1,.1.517l.086.792Z" transform="translate(-26.981 -246.411)" fill="#02ade6"/>
          <path id="패스_510" data-name="패스 510" d="M47.231,290.059c.024.214.114.4.028.589l-17.84,11.94c-.126-.042-.128-.14-.166-.244a8.952,8.952,0,0,1-.573-2.82L46.87,287.35a3.428,3.428,0,0,1,.174,1.06l.188,1.651Z" transform="translate(-22.955 -229.995)" fill="#02ade6"/>
          <path id="패스_511" data-name="패스 511" d="M.767,69.785.551,68.731.5,68.26a4.6,4.6,0,0,1-.07-1.126L22.312,52.49l.982,2.022a.243.243,0,0,1,.02.16c-.014.064-.064.066-.14.118Z" transform="translate(-0.33 -42.013)" fill="#02ade6"/>
          <path id="패스_512" data-name="패스 512" d="M42.6,113.307,21.111,127.69a.173.173,0,0,1-.168.032c-.034-.016-.038-.084-.072-.134a15.07,15.07,0,0,1-1.022-1.824L42.179,110.82l.255,1.349a2.352,2.352,0,0,1,.092.565,1.719,1.719,0,0,1,.074.575Z" transform="translate(-15.888 -88.7)" fill="#02ade6"/>
          <path id="패스_513" data-name="패스 513" d="M48.971,130.159,28.612,143.785l-1-1.87c-.04-.076-.12-.118-.052-.222L48.846,127.45l.12.908.008,1.8Z" transform="translate(-22.041 -102.011)" fill="#02ade6"/>
          <path id="패스_514" data-name="패스 514" d="M26.651,68.752,3.683,84.125,3.3,82.966l-.259-.948L25.776,66.8l.523,1.084Z" transform="translate(-2.433 -53.467)" fill="#03ade6"/>
          <path id="패스_515" data-name="패스 515" d="M1.112,30.344a7.831,7.831,0,0,1,.11-1.184c.022-.253.044-.489.084-.745l.09-.563a2.136,2.136,0,0,1,.148-.729L17.791,16.25,18.9,17.428l.281.333a1.343,1.343,0,0,1,.347.507L1.1,30.593C1.036,30.557,1.046,30.434,1.112,30.344Z" transform="translate(-0.847 -13.006)" fill="#02ade6"/>
          <path id="패스_516" data-name="패스 516" d="M21.657,41.7.014,56.183,0,53.634,20.6,39.85Z" transform="translate(0 -31.896)" fill="#03ade6"/>
          <path id="패스_517" data-name="패스 517" d="M61.8,331.083a13.081,13.081,0,0,1-.369,2.246l-12.537,8.4a6.918,6.918,0,0,1-3.04-1.569L61.708,329.54l.1.489-.016,1.052Z" transform="translate(-36.698 -263.764)" fill="#02ade6"/>
          <path id="패스_518" data-name="패스 518" d="M14.926,114.188a5.689,5.689,0,0,1-.479-.954,4.1,4.1,0,0,1-.327-.79l22.8-15.253.391,1.359.146.563Z" transform="translate(-11.302 -77.791)" fill="#03ade6"/>
          <path id="패스_519" data-name="패스 519" d="M47.574,254.362l-17.79,11.906c-.076-.263.074-.533.05-.81l.3-1.748c.044-.124,0-.445.154-.547l17.625-11.8a4.516,4.516,0,0,1-.068.844,12.06,12.06,0,0,0-.088,1.259l-.034.609A.3.3,0,0,1,47.574,254.362Z" transform="translate(-23.821 -201.188)" fill="#03ade6"/>
          <path id="패스_520" data-name="패스 520" d="M28.736,285.207l-.016-1.571.032-.569a.786.786,0,0,1,.094-.435L46.826,270.6l.018,2.489L28.738,285.207Z" transform="translate(-22.987 -216.588)" fill="#03ade6"/>
          <path id="패스_521" data-name="패스 521" d="M.246,44.172a2.149,2.149,0,0,1-.018-.834l.028-1.184a.355.355,0,0,1,.186-.305L19.31,29.22l1.05,1.5Z" transform="translate(-0.156 -23.388)" fill="#03ade6"/>
          <path id="패스_522" data-name="패스 522" d="M69.747,361.287a3.93,3.93,0,0,1-1.13.269l-.467.082a3.412,3.412,0,0,1-1.84-.122L77.5,354.03a8.491,8.491,0,0,1-1.257,2.479l-.421.581-1,1.2-.621.6a11.673,11.673,0,0,1-4.445,2.4Z" transform="translate(-53.075 -283.365)" fill="#03ade6"/>
          <path id="패스_523" data-name="패스 523" d="M49.891,212.448l-.008-2.18a12.353,12.353,0,0,0-.283-2.613l-.11-.637L62.4,198.38l-.7,7.237-11.91,7.966Z" transform="translate(-39.612 -158.783)" fill="#02ade6"/>
        </g>
      </g>
    </g>
  </g>
</svg>
