<svg xmlns="http://www.w3.org/2000/svg" xmlns:xlink="http://www.w3.org/1999/xlink" width="407.242" height="407.242" viewBox="0 0 407.242 407.242">
  <defs>
    <filter id="패스_15" x="0" y="0" width="407.242" height="407.242" filterUnits="userSpaceOnUse">
      <feOffset input="SourceAlpha"/>
      <feGaussianBlur stdDeviation="5" result="blur"/>
      <feFlood flood-opacity="0.161"/>
      <feComposite operator="in" in2="blur"/>
      <feComposite in="SourceGraphic"/>
    </filter>
  </defs>
  <g id="발자국_추가하기_" data-name="발자국 추가하기 " transform="translate(-227 -114)">
    <g transform="matrix(1, 0, 0, 1, 227, 114)" filter="url(#패스_15)">
      <path id="패스_15-2" data-name="패스 15" d="M188.621,0C292.794,0,377.242,84.449,377.242,188.621S292.794,377.242,188.621,377.242A188.138,188.138,0,0,1,73.129,337.7,190.525,190.525,0,0,1,45.8,311.835,187.538,187.538,0,0,1,0,188.621C0,84.449,84.449,0,188.621,0Z" transform="translate(15 15)" fill="#1a1a1a"/>
    </g>
    <g id="_아이콘_발자국_추가하기" data-name="[아이콘] 발자국 추가하기" transform="translate(299.237 191.558)">
      <g id="그룹_2" data-name="그룹 2" transform="translate(115.958 0)">
        <path id="패스_1" data-name="패스 1" d="M396.908,80.032c.169,5.356-2.551,9.915-7.381,10.431-4.912.527-9.273-3.511-9.191-8.947a82.278,82.278,0,0,1-.571-10.195l-.488-17.685L350.5,53.4c-4.274-.038-7.087-5.194-6.681-9.076a8.87,8.87,0,0,1,8.486-8.135l27.383-.247-.1-18.271c-.021-3.549-.694-6.963-.067-10.383.915-4.264,4.258-7.313,8.22-7.286a8.468,8.468,0,0,1,8.079,7.872c.607,9.238.628,18.131.582,27.88l10.42-.032,13.979-.93a8.637,8.637,0,0,1,9.335,8.329c.185,5.286-3.467,8.845-8.63,9.173l-16.746,1.07-8.692.247.828,26.417Z" transform="translate(-282.924 0)" fill="#fff" stroke="rgba(255,255,255,0.19)" stroke-width="1"/>
        <ellipse id="타원_4" data-name="타원 4" cx="4.608" cy="4.818" rx="4.608" ry="4.818" transform="translate(109.848 161.054)" fill="#fff" stroke="rgba(255,255,255,0.19)" stroke-width="1"/>
        <g id="그룹_1" data-name="그룹 1" transform="translate(0 87.305)">
          <path id="패스_2" data-name="패스 2" d="M300.621,289.908c.874-7.581,7.062-12.334,13.66-11.819a12.918,12.918,0,0,1,11.7,14.293l-2.047,20c-.751,7.351-3.209,13.9-5.848,20.745-8.878,23.058-27.532,48.158-52.163,50.469-9.35.877-18.145-1.371-25.089-7.667-8.229-7.459-12.776-17.674-14.545-28.854-2.844-17.981,2.057-39.618,7.319-57.179,2.72-9.077,5.508-17.815,10.029-25.907,3.96-7.087,11.917-9.679,18.361-5.576s7.812,12.867,3.6,19.82c-3.621,5.973-5.3,12.824-7.417,19.593a151.877,151.877,0,0,0-6.984,34.484c-.623,8.378,1.353,21.147,7.777,23.981,6.768,2.985,16.412-3.952,21.745-10.216a77.107,77.107,0,0,0,13.948-24.061c1.482-4.077,3.154-7.883,3.657-12.239l2.294-19.874Z" transform="translate(-225.454 -205.863)" fill="#fff" stroke="rgba(255,255,255,0.19)" stroke-width="1"/>
          <path id="패스_3" data-name="패스 3" d="M286.4,181.527c.005,12.329-7.534,26.9-16.495,24.191a16.853,16.853,0,0,1-11.516-13.647,44.18,44.18,0,0,1,1.548-20.384,12.914,12.914,0,0,1,12.308-9.3c3.559-.156,6.922.4,9.165,3.479A26.427,26.427,0,0,1,286.4,181.527Z" transform="translate(-241.182 -162.366)" fill="#fff" stroke="rgba(255,255,255,0.19)" stroke-width="1"/>
          <path id="패스_4" data-name="패스 4" d="M321.14,224.538c-2.767-3.377-3.27-6.92-2.994-10.986.469-6.775,2.259-13.109,6.616-18.153,4.453-5.151,11.885-5.34,16.3-.161a12,12,0,0,1,3.065,10.3c-1.373,7.135-4.418,14.448-9.325,19.379-4.192,4.21-10.1,3.979-13.666-.371Z" transform="translate(-270.44 -175.809)" fill="#fff" stroke="rgba(255,255,255,0.19)" stroke-width="1"/>
          <path id="패스_5" data-name="패스 5" d="M394.6,233.922c-.273,9.26-7.175,20.761-15.446,17.621-2.34-.887-4.279-3.85-4.371-7.07-.185-6.222,2.854-11.507,6.985-15.729,2.231-2.285,5.055-3.371,8.049-2.333a7.675,7.675,0,0,1,4.788,7.506Z" transform="translate(-297.975 -191.791)" fill="#fff" stroke="rgba(255,255,255,0.19)" stroke-width="1"/>
          <path id="패스_6" data-name="패스 6" d="M420.565,279.1a6.14,6.14,0,0,1-7.118-6.527,10.517,10.517,0,0,1,6.151-9.3c1.878-.935,4.6-1.656,6.393.2a9.635,9.635,0,0,1,1.734,9.491c-1.148,2.834-3.57,5.635-7.16,6.141Z" transform="translate(-316.755 -208.572)" fill="#fff" stroke="rgba(255,255,255,0.19)" stroke-width="1"/>
        </g>
      </g>
      <g id="그룹_3" data-name="그룹 3" transform="translate(0 48.516)">
        <path id="패스_7" data-name="패스 7" d="M105.756,254.035c-10.369,3.888-26.868,13.69-29.579,24.67A106.3,106.3,0,0,0,99.1,296.821l6.892,3.027c6.275,2.758,8.6,10.63,6.095,17.051a12.643,12.643,0,0,1-15.851,7.571c-7.653-2.447-14.206-6.689-20.763-11.5-8.661-6.35-16.5-13.405-22.846-22.165a80.237,80.237,0,0,1-13.614-63.9,64.563,64.563,0,0,1,17.652-33.187c12.838-12.991,30.314-20,48.182-17.212,7.283,1.134,12.015,8.523,10.9,15.4a13.155,13.155,0,0,1-15.152,11.12c-9.422-1.274-18.331,2.565-25.243,9.184-10.359,9.91-13.475,22.88-11.876,38.129A93.6,93.6,0,0,1,95.4,229.457a94.908,94.908,0,0,1,11.85-4.258,12.633,12.633,0,0,1,15.394,8.792A13.4,13.4,0,0,1,114.68,250.7l-8.913,3.345Z" transform="translate(-18.109 -129.835)" fill="#fff" stroke="rgba(255,255,255,0.19)" stroke-width="1"/>
        <path id="패스_8" data-name="패스 8" d="M133.761,129.363c-2.669-.828-4.624-3.608-5.462-6.157-3.379-10.238-3.559-24.906,5.061-31.111a10.7,10.7,0,0,1,11.022-.656,13.2,13.2,0,0,1,6.7,8.528c1.9,6.888-1.415,19.293-5.781,24.977-2.716,3.532-6.923,5.85-11.536,4.42Z" transform="translate(-61.261 -90.228)" fill="#fff" stroke="rgba(255,255,255,0.19)" stroke-width="1"/>
        <path id="패스_9" data-name="패스 9" d="M94.161,114.1c3.153,9.711,3.065,26.063-5.153,27.918-9.057,2.038-14.772-12.254-12.895-24.541,1.044-6.856,6.522-10.937,12.1-9.378a9.34,9.34,0,0,1,5.956,6Z" transform="translate(-36.792 -98.334)" fill="#fff" stroke="rgba(255,255,255,0.19)" stroke-width="1"/>
        <path id="패스_10" data-name="패스 10" d="M41.1,149.835c5.256,5.264,9.788,17.562,3.533,22.11-5.853,4.253-17.744-4.651-18.619-15.884-.3-3.861,1.527-7.9,5.04-9.216S38.39,147.119,41.1,149.835Z" transform="translate(-12.616 -116.184)" fill="#fff" stroke="rgba(255,255,255,0.19)" stroke-width="1"/>
        <path id="패스_11" data-name="패스 11" d="M20.692,209.452c-1.384,3.984-8.291,5.157-13.563.989-5.6-4.426-9.309-11.378-5.112-15.594,4.459-4.479,14.375,1.264,18.058,8.98a6.94,6.94,0,0,1,.622,5.63Z" transform="translate(-0.102 -137.866)" fill="#fff" stroke="rgba(255,255,255,0.19)" stroke-width="1"/>
        <path id="패스_12" data-name="패스 12" d="M10.677,248.486c-2.87,3.1-7.051,1.936-9.3-1.048a6.189,6.189,0,0,1-.658-6.77c1.4-2.505,4.264-2.769,6.784-1.785a6.416,6.416,0,0,1,4.007,3.689,5.87,5.87,0,0,1-.833,5.909Z" transform="translate(0.002 -158.704)" fill="#fff" stroke="rgba(255,255,255,0.19)" stroke-width="1"/>
      </g>
    </g>
  </g>
</svg>
