<svg xmlns="http://www.w3.org/2000/svg" xmlns:xlink="http://www.w3.org/1999/xlink" width="32.096" height="32.096" viewBox="0 0 32.096 32.096">
  <defs>
    <filter id="타원_41" x="0" y="0" width="32.096" height="32.096" filterUnits="userSpaceOnUse">
      <feOffset dx="1" dy="1" input="SourceAlpha"/>
      <feGaussianBlur stdDeviation="0.5" result="blur"/>
      <feFlood flood-opacity="0.231"/>
      <feComposite operator="in" in2="blur"/>
      <feComposite in="SourceGraphic"/>
    </filter>
    <clipPath id="clip-path">
      <circle id="타원_42" data-name="타원 42" cx="9.899" cy="9.899" r="9.899" transform="matrix(0.966, 0.259, -0.259, 0.966, 891.733, -1687.242)" fill="#e9b6cc"/>
    </clipPath>
  </defs>
  <g id="_아이콘_저장표시_walk" data-name="[아이콘] 저장표시 walk" transform="translate(-977.684 1611.167)">
    <g transform="matrix(1, 0, 0, 1, 977.68, -1611.17)" filter="url(#타원_41)">
      <g id="타원_41-2" data-name="타원 41" transform="matrix(0.97, 0.26, -0.26, 0.97, 6.65, 0.5)" fill="#fff">
        <path d="M 11.87845706939697 22.25691795349121 C 6.155756950378418 22.25691795349121 1.499997019767761 17.60115623474121 1.499997019767761 11.87845706939697 C 1.499997019767761 6.155756950378418 6.155756950378418 1.499997019767761 11.87845706939697 1.499997019767761 C 17.60115623474121 1.499997019767761 22.25691795349121 6.155756950378418 22.25691795349121 11.87845706939697 C 22.25691795349121 17.60115623474121 17.60115623474121 22.25691795349121 11.87845706939697 22.25691795349121 Z" stroke="none"/>
        <path d="M 11.87845706939697 2.999996185302734 C 6.982856750488281 2.999996185302734 2.999996185302734 6.982856750488281 2.999996185302734 11.87845706939697 C 2.999996185302734 16.77405738830566 6.982856750488281 20.75691604614258 11.87845706939697 20.75691604614258 C 16.77405738830566 20.75691604614258 20.75691604614258 16.77405738830566 20.75691604614258 11.87845706939697 C 20.75691604614258 6.982856750488281 16.77405738830566 2.999996185302734 11.87845706939697 2.999996185302734 M 11.87845706939697 -3.814697265625e-06 C 18.43874740600586 -3.814697265625e-06 23.75691795349121 5.318166732788086 23.75691795349121 11.87845706939697 C 23.75691795349121 18.43874740600586 18.43874740600586 23.75691795349121 11.87845706939697 23.75691795349121 C 5.318166732788086 23.75691795349121 -3.814697265625e-06 18.43874740600586 -3.814697265625e-06 11.87845706939697 C -3.814697265625e-06 5.318166732788086 5.318166732788086 -3.814697265625e-06 11.87845706939697 -3.814697265625e-06 Z" stroke="none" fill="#fff"/>
      </g>
    </g>
    <g id="마스크_그룹_6" data-name="마스크 그룹 6" transform="translate(94 79)" clip-path="url(#clip-path)">
      <g id="레이어_1" data-name="레이어 1" transform="translate(931.893 -1736.288) rotate(41)">
        <g id="그룹_105" data-name="그룹 105" transform="translate(0 0)">
          <g id="그룹_102" data-name="그룹 102">
            <path id="패스_453" data-name="패스 453" d="M.514,10.684A1.388,1.388,0,0,1,0,10.751a5.225,5.225,0,0,1,.178-.886L.751,7.487l.168-.573a11.509,11.509,0,0,1,1.2-2.527A8.369,8.369,0,0,1,4,2.2,8.585,8.585,0,0,1,7.77.229L8.858,0H10.2A3.39,3.39,0,0,1,11.4.244a10.391,10.391,0,0,1,3.376,2.018l.972.945.831.89a17.792,17.792,0,0,1,1.84,2.325l.726,1.095Z" transform="translate(1.51 0)" fill="#71aa55"/>
            <path id="패스_454" data-name="패스 454" d="M3.491,5.758.327,6.3A11.207,11.207,0,0,1,.074,4.385L0,3.8,22.347,0l.395,1.516.182.931L3.489,5.758Z" transform="translate(1.962 20.291)" fill="#71aa55"/>
            <path id="패스_455" data-name="패스 455" d="M.819,6.133.133,4.373,0,3.781,22.267,0l.176,2.449Z" transform="translate(3.088 26.194)" fill="#71aa55"/>
            <path id="패스_456" data-name="패스 456" d="M22.151,2.073,0,5.84l.014-2.2L21.482,0,21.8.874Z" transform="translate(1.944 17.481)" fill="#71aa55"/>
            <path id="패스_457" data-name="패스 457" d="M19.714,2.28,0,5.623A19.679,19.679,0,0,1,.422,3.084L18.562,0l.878,1.731Z" transform="translate(2.339 11.766)" fill="#71aa55"/>
            <path id="패스_458" data-name="패스 458" d="M0,5.472l.2-.823c.1-.424.248-.821.385-1.236l.276-.841L16,0c.528.8,1.052,1.6,1.539,2.488Z" transform="translate(2.957 8.574)" fill="#71aa55"/>
            <rect id="사각형_2173" data-name="사각형 2173" width="22.922" height="2.005" transform="matrix(0.986, -0.167, 0.167, 0.986, 2.426, 27.312)" fill="#71aa55"/>
            <path id="패스_459" data-name="패스 459" d="M21.359,2.1,1.144,5.545a1.077,1.077,0,0,1-.458-.458L0,3.624,21.347,0l.012,1.25Z" transform="translate(4.226 29.411)" fill="#71aa55"/>
            <path id="패스_460" data-name="패스 460" d="M5.8,4.614,0,5.6c.063-.323.047-.608.08-.9L.227,3.428,20.412,0l.8,2L5.8,4.616Z" transform="translate(1.995 14.752)" fill="#71aa55"/>
            <path id="패스_461" data-name="패스 461" d="M1.465,2.891,0,3.133l.1-.5L.587.3,2.3,0,1.977,1.064A11.215,11.215,0,0,0,1.465,2.891Z" transform="translate(0.684 11.289)" fill="#71aa55"/>
            <path id="패스_462" data-name="패스 462" d="M2.732,2.515,1.52,2.728C1.056,1.868.555,1.072,0,.223L1.353,0A21.136,21.136,0,0,1,2.734,2.515Z" transform="translate(19.773 8.208)" fill="#71aa55"/>
            <path id="패스_463" data-name="패스 463" d="M2.177,2.335.835,2.564a1.431,1.431,0,0,1-.254-.6C.362,1.4.18.855,0,.235L1.369,0a8.969,8.969,0,0,0,.5,1.518l.311.819Z" transform="translate(0.958 30.109)" fill="#71aa55"/>
            <path id="패스_464" data-name="패스 464" d="M0,2.742a2.016,2.016,0,0,0,.025-.524L.229.7C.252.542.217.379.325.233L1.684,0C1.508.853,1.4,1.655,1.293,2.521L0,2.742Z" transform="translate(0.266 14.991)" fill="#71aa55"/>
            <path id="패스_465" data-name="패스 465" d="M.211,2.722.1,1.881A10.206,10.206,0,0,1,.049.849,2.125,2.125,0,0,1,.021.213L1.218,0l.131,1.287.2,1.209L.211,2.722Z" transform="translate(0 24.216)" fill="#71aa55"/>
            <path id="패스_466" data-name="패스 466" d="M1.443,2.447.178,2.666,0,.227,1.34,0a10.219,10.219,0,0,0,.084,1.134Z" transform="translate(26.11 25.846)" fill="#71aa55"/>
            <path id="패스_467" data-name="패스 467" d="M1.817,2.425l-1.25.217A18.893,18.893,0,0,0,0,.209L1.189,0a22.892,22.892,0,0,1,.626,2.423Z" transform="translate(25.063 19.97)" fill="#71aa55"/>
            <path id="패스_468" data-name="패스 468" d="M2.331,1.948.788,2.21.139.7A1.324,1.324,0,0,1,0,.235L1.387,0l.673,1.475Z" transform="translate(2.061 33.17)" fill="#71aa55"/>
            <path id="패스_469" data-name="패스 469" d="M1.177,2.464.434,1.023,0,.194,1.158,0,2.253,2.273Z" transform="translate(21.697 11.443)" fill="#71aa55"/>
            <path id="패스_470" data-name="패스 470" d="M1.827,1.909l-1.4.223L0,.227,1.373,0Z" transform="translate(0.305 27.461)" fill="#71aa55"/>
            <path id="패스_471" data-name="패스 471" d="M1.209,2.106.023,2.3,0,.209,1.248,0l-.02,1.013Z" transform="translate(26.338 29.079)" fill="#71aa55"/>
            <path id="패스_472" data-name="패스 472" d="M.036,2.351A8.024,8.024,0,0,1,.089.7L.1.207,1.38,0,1.186,2.155l-1.152.2Z" transform="translate(0.06 18.322)" fill="#71aa55"/>
            <path id="패스_473" data-name="패스 473" d="M.667,2.277.452,1.627,0,.194,1.183,0l.663,2.048Z" transform="translate(24.203 17.154)" fill="#71aa55"/>
            <path id="패스_474" data-name="패스 474" d="M0,2.37.008.659.063.184,1.181,0l0,2.175Z" transform="translate(0.01 21.271)" fill="#71aa55"/>
            <path id="패스_475" data-name="패스 475" d="M1.572,1.9.244,2.149,0,.2,1.244,0l.207,1.138a3.182,3.182,0,0,0,.121.763Z" transform="translate(25.781 23.16)" fill="#71aa55"/>
            <path id="패스_476" data-name="패스 476" d="M1.928,1.991.784,2.183,0,.176,1.1,0,1.58,1.095Z" transform="translate(23.174 14.44)" fill="#71aa55"/>
          </g>
          <g id="그룹_104" data-name="그룹 104" transform="translate(3.209 31.965)">
            <path id="패스_477" data-name="패스 477" d="M4.131,27.672l.237-1.69.1-.794.1-1.123.1-.98.106-1.273.049-.978.047-.593V18.232L4.827,17.4l-.045-.982c-.025-.53-.088-1.031-.106-1.557l-.1-.688-.115-.659A13.552,13.552,0,0,0,3.1,9.879L2.621,9.02,1.668,7.377A27.54,27.54,0,0,1,0,4.129L24.3,0a23.139,23.139,0,0,1-.254,3.505L23.315,9l-.221,1.111a17.058,17.058,0,0,0-.473,2.48l-.614,3.593-.233,1.4-.108.536-.1.489-.092.6-.1.692-.1,1.025-.068.659-.041,2.863.016,1.146a3.557,3.557,0,0,0,.108,1.142L3.9,28.887Z" fill="#70aa54"/>
            <g id="그룹_103" data-name="그룹 103" transform="translate(2.638 27.494)">
              <path id="패스_478" data-name="패스 478" d="M15.278,2.194.021,4.086A12.575,12.575,0,0,1,.1,1.858L15.075,0A14.536,14.536,0,0,1,15.278,2.194Z" transform="translate(1.925 6.2)" fill="#71aa55"/>
              <path id="패스_479" data-name="패스 479" d="M14.837,2.232,0,4.074A16.184,16.184,0,0,1,.383,1.733L14.369,0l.2.839.266,1.394Z" transform="translate(2.071 3.204)" fill="#71aa55"/>
              <path id="패스_480" data-name="패스 480" d="M0,3.753.432,2.476A4.752,4.752,0,0,1,.888,1.5L12.969,0l.62,2.065Z" transform="translate(2.707 0.383)" fill="#71aa55"/>
              <path id="패스_481" data-name="패스 481" d="M14.236,1.909.669,3.6A7.007,7.007,0,0,1,0,1.836L14.8,0A7.448,7.448,0,0,1,14.236,1.909Z" transform="translate(2.306 11.494)" fill="#71aa55"/>
              <path id="패스_482" data-name="패스 482" d="M5.887,3.771a2.182,2.182,0,0,1-.821.014L4.44,3.659A7.531,7.531,0,0,1,0,1.637L13.26,0a9.441,9.441,0,0,1-2.038,1.817A11.844,11.844,0,0,1,8.081,3.278l-.647.237-1.547.254Z" transform="translate(3.372 16.919)" fill="#71aa55"/>
              <path id="패스_483" data-name="패스 483" d="M15.206,1.543.188,3.407,0,1.891,15.247,0a8.856,8.856,0,0,1-.039,1.545Z" transform="translate(1.989 9.165)" fill="#71aa55"/>
              <path id="패스_484" data-name="패스 484" d="M10.829,2.177,1.4,3.352A6.888,6.888,0,0,1,0,1.549L12.5,0a6.549,6.549,0,0,1-1.676,2.175Z" transform="translate(3.628 14.228)" fill="#71aa55"/>
              <path id="패스_485" data-name="패스 485" d="M2.445,1.367a2.289,2.289,0,0,1,.049.759L.608,2.349,0,.289,2.3,0l.108.8A1.947,1.947,0,0,0,2.445,1.367Z" transform="translate(16.452 0)" fill="#71aa55"/>
              <path id="패스_486" data-name="패스 486" d="M2.187,2.235l-.714.11-1,.117L0,.237,1.9,0l.178,1.4Z" transform="translate(17.213 2.883)" fill="#71aa55"/>
              <path id="패스_487" data-name="패스 487" d="M1.917,1.612a1.19,1.19,0,0,1,.1.565L.2,2.419A16.133,16.133,0,0,0,0,.215L1.7,0l.145,1.082a1.668,1.668,0,0,1,.07.532Z" transform="translate(17.763 5.885)" fill="#71aa55"/>
              <path id="패스_488" data-name="패스 488" d="M0,2.288a1.462,1.462,0,0,1,.291-.52A11.613,11.613,0,0,0,1.23.168L2.848,0A10.491,10.491,0,0,1,1.52,2.106L0,2.286Z" transform="translate(15.848 13.939)" fill="#71aa55"/>
              <path id="패스_489" data-name="패스 489" d="M.143,2.1C.081,2.112.02,2.1,0,2.075S.02,2,.065,1.971L.517.2,2.175,0a9.708,9.708,0,0,1-.516,1.9L.143,2.106Z" transform="translate(17.402 11.197)" fill="#71aa55"/>
              <path id="패스_490" data-name="패스 490" d="M.567,2.32A2.467,2.467,0,0,1,0,2.353L.415.184,1.971,0,1.183,2.224l-.614.1Z" transform="translate(0.675 2.007)" fill="#71aa55"/>
              <path id="패스_491" data-name="패스 491" d="M1.733,1.547,0,1.774.031.221,1.86,0a4.635,4.635,0,0,1-.041.941,1.412,1.412,0,0,1-.084.606Z" transform="translate(17.972 8.838)" fill="#71aa55"/>
              <path id="패스_492" data-name="패스 492" d="M0,2.359.023,1.113.113.151,1.238,0a11.451,11.451,0,0,0-.059,2.214Z" transform="translate(0.006 8.156)" fill="#71aa55"/>
              <path id="패스_493" data-name="패스 493" d="M1.095,2.327,0,2.445.338.131,1.455,0,1.279.929Z" transform="translate(0.18 5.054)" fill="#71aa55"/>
              <path id="패스_494" data-name="패스 494" d="M1.477,1.95c-.16.022-.229-.066-.315-.172A13.053,13.053,0,0,1,0,.182L1.222,0,2.564,1.8l-1.087.149Z" transform="translate(1.338 15.908)" fill="#71aa55"/>
              <path id="패스_495" data-name="패스 495" d="M1.85,1.745.618,1.913A9.445,9.445,0,0,1,0,.164L1.244,0A9.142,9.142,0,0,0,1.85,1.745Z" transform="translate(0.296 13.424)" fill="#71aa55"/>
              <path id="패스_496" data-name="패스 496" d="M.145,1.69.043.9A3.152,3.152,0,0,1,.01.16L1.221,0l.192,1.526L.147,1.69Z" transform="translate(0 11.144)" fill="#71aa55"/>
            </g>
          </g>
        </g>
      </g>
    </g>
  </g>
</svg>
