<?xml version="1.0" encoding="UTF-8"?>
<svg id="_레이어_2" data-name="레이어 2" xmlns="http://www.w3.org/2000/svg" viewBox="0 0 716.35 450.46">
  <defs>
    <style>
      .cls-1 {
        fill: #e58a91;
      }

      .cls-2 {
        fill: #fff;
        stroke: #4d4d4d;
        stroke-miterlimit: 10;
        stroke-width: .25px;
      }
    </style>
  </defs>
  <g id="_레이어_1-2" data-name="레이어 1">
    <g>
      <polygon points="35.8 319.51 86.61 116.34 631.8 0 716.35 371.78 56.42 420.13 35.8 319.51"/>
      <polygon class="cls-1" points="0 349.85 50.05 146.67 612.18 45.18 670.4 402.11 20.31 450.46 0 349.85"/>
      <g>
        <path class="cls-2" d="M249.33,212.3l1.67,40.47-95.17,3.93,1.46,35.47,66.45-2.74,1.67,40.47-66.45,2.74,3.02,73.19-42.22,1.74-7.83-189.6,137.39-5.67Z"/>
        <path class="cls-2" d="M346.5,346.53c-5.11,37.51-29.5,63.02-65.37,58.13-36.06-4.92-52.73-36.02-47.61-73.53,5.11-37.51,29.5-63.02,65.56-58.1,35.87,4.89,52.53,35.99,47.42,73.51ZM264.79,335.39c-2.82,20.67,5.16,35.25,20.69,37.37,15.54,2.12,26.93-9.83,29.75-30.49,2.82-20.67-4.97-35.23-20.5-37.35s-27.13,9.8-29.94,30.47Z"/>
        <path class="cls-2" d="M461.29,346.53c-5.11,37.51-29.5,63.02-65.37,58.13-36.06-4.92-52.73-36.02-47.61-73.53,5.11-37.51,29.5-63.02,65.56-58.1,35.87,4.89,52.53,35.99,47.42,73.51ZM379.57,335.39c-2.82,20.67,5.16,35.25,20.69,37.37,15.54,2.12,26.93-9.83,29.75-30.49,2.82-20.67-4.97-35.23-20.5-37.35s-27.13,9.8-29.94,30.47Z"/>
        <path class="cls-2" d="M561.27,201.57l32.02,172.95-29.7,5.5-2.66-14.36c-5.07,11.96-14.86,20.75-29.71,23.5-27.6,5.11-51.21-13.92-58.82-55.04-7.65-41.33,7.61-67.34,35.21-72.45,14.85-2.75,27.1,1.73,36.11,11.09l-12.17-65.7,29.7-5.5ZM534.08,356.69c14.47-2.68,22.11-16.69,18.12-38.23-3.99-21.54-16.14-31.89-30.61-29.21-14.28,2.64-22.26,16.95-18.31,38.27,3.91,21.1,16.52,31.82,30.8,29.17Z"/>
      </g>
    </g>
  </g>
</svg>