<?xml version="1.0" encoding="UTF-8"?>
<svg id="_레이어_2" data-name="레이어 2" xmlns="http://www.w3.org/2000/svg" viewBox="0 0 650.47 361.35">
  <defs>
    <style>
      .cls-1 {
        fill: #fff;
        stroke: #4d4d4d;
        stroke-miterlimit: 10;
        stroke-width: .25px;
      }

      .cls-2 {
        fill: #1a1a1a;
      }

      .cls-3 {
        fill: #e9b6cb;
      }
    </style>
  </defs>
  <g id="_레이어_1-2" data-name="레이어 1">
    <g>
      <path class="cls-2" d="M64.54,34.32c12.25-.41,284.07,60.52,284.07,60.52l254.87-78.5,46.99,244.7-158.11,100.3-331.42-12.63L25.18,263.49"/>
      <path class="cls-3" d="M0,247.15l135.76,85.23,331.42,12.63,158.11-100.3L578.3,0l-254.87,78.5S51.61,17.56,39.36,17.97"/>
      <g>
        <path class="cls-1" d="M183.35,121.47c29.87.17,50.25,18.38,50.09,46.21-.1,16.9-8.03,30.34-21.39,37.94l25.35,45.72-33.8-.19-21.29-38.36-21.17-.12-.22,38.24-28.85-.16.74-129.56,50.53.29ZM177.84,188.7c15.02.09,25.65-7.02,25.73-21.19.08-14-10.46-21.23-25.48-21.31l-16.56-.09-.24,42.5,16.56.09Z"/>
        <path class="cls-1" d="M309.43,226.13l-2.35,6.63-57.07-20.23c-2.22,9.79,1.79,18.21,12.01,21.84,7.6,2.69,13.64,1.88,17.51-1.57l22.94,8.13c-9.52,12.8-27.33,18.31-47.09,11.3-24.18-8.57-34.44-30.09-25.92-54.14,8.52-24.04,29.82-34.54,54.14-25.92,24.46,8.67,34.35,29.91,25.83,53.95ZM289.52,209.89c1.56-9.24-3.44-16.62-12.29-19.75-8.57-3.04-17.07.33-21.71,7.7l33.99,12.05Z"/>
        <path class="cls-1" d="M390.55,198.83l7.99,46.08-22.53,3.91-1.53-8.81c-4.48,7.62-12.67,12.76-24.51,14.81-16.9,2.93-28.92-3.76-31.35-17.77-2.2-12.71,4.35-23.82,24.96-31.11l23.57-8.25c-1.35-7.8-7.04-11.43-16.14-9.85-8.81,1.53-12.32,6.15-11.85,12.32l-22.82,3.96c-2.12-14.81,7.58-30.93,31.42-35.06,23.26-4.03,38.8,6.66,42.81,29.78ZM352.45,235.65c12.42-2.15,19.45-10.51,17.68-20.77l-.2-1.16-17.96,6.24c-9.55,3.29-11.28,7.02-10.56,11.21.63,3.61,4.54,5.61,11.04,4.48Z"/>
        <path class="cls-1" d="M501.66,125.43l-28.8,125.82-22.29-5.13,2.39-10.45c-7.06,6.54-16.47,9.54-27.61,6.97-20.72-4.77-31.52-24.58-24.68-54.49,6.88-30.07,25.19-43.02,45.9-38.25,11.14,2.56,18.34,9.22,21.86,18.19l10.94-47.8,22.29,5.13ZM436.93,221.66c10.86,2.5,20.32-4.66,23.9-20.32,3.59-15.67-1.81-26.24-12.67-28.74-10.72-2.47-20.5,4.78-24.05,20.29-3.51,15.35,2.1,26.31,12.82,28.77Z"/>
      </g>
    </g>
  </g>
</svg>