<?xml version="1.0" encoding="UTF-8"?>
<svg id="_레이어_2" data-name="레이어 2" xmlns="http://www.w3.org/2000/svg" viewBox="0 0 670.51 415.66">
  <defs>
    <style>
      .cls-1 {
        fill: #fff;
        stroke: #4d4d4d;
        stroke-miterlimit: 10;
        stroke-width: .25px;
      }

      .cls-2 {
        fill: #00ace6;
      }
    </style>
  </defs>
  <g id="_레이어_1-2" data-name="레이어 1">
    <g>
      <polyline points="670.51 57.19 20.43 105.54 48.17 250 198.68 415.66 563.28 403.4"/>
      <polyline class="cls-2" points="650.08 0 0 48.35 27.74 192.81 178.25 358.47 542.85 346.21"/>
      <path class="cls-1" d="M212.61,262.57c-22.38.72-40.72-2.34-55.01-9.17l-.91-28.37c17.24,6.74,34.45,9.83,51.62,9.28,21.69-.7,32.28-8.86,31.78-24.47-.22-6.94-2.17-12.04-5.83-15.31-3.67-3.27-10.31-5.96-19.93-8.09l-16.27-3.64c-14.17-3.19-24.9-8.58-32.18-16.16-7.28-7.58-11.17-19.18-11.67-34.8s4.29-28.54,14.4-38.24c10.11-9.7,25.14-14.88,45.09-15.52s36.19,2.05,49.24,8.05l.9,27.85c-17.72-5.51-33.35-8.04-46.88-7.61-18.74.6-27.88,7.85-27.44,21.73.2,6.25,2,10.92,5.4,14.02,3.4,3.11,9.39,5.65,17.96,7.63l15.75,3.66c15.92,3.65,27.74,9.23,35.45,16.7,7.71,7.48,11.82,19.03,12.32,34.65.57,17.7-4.5,31.58-15.2,41.65-10.71,10.07-26.9,15.46-48.59,16.16Z"/>
      <path class="cls-1" d="M298.13,257.45c-8.8-2.41-14.84-6.06-18.13-10.97-3.29-4.91-3.37-11.57-.26-19.98l18.26-49.29-12.3-3.37,6.13-16.54,12.3,3.37,7.71-20.81,23,6.3-7.71,20.81,21.22,5.81-6.13,16.54-21.22-5.81-16.94,45.71c-1.39,3.75-1.44,6.62-.14,8.6,1.29,1.98,4.14,3.57,8.54,4.78,3.8,1.04,7.3,1.5,10.49,1.37l-5.5,14.84c-5.64,1.09-12.09.64-19.34-1.35Z"/>
      <path class="cls-1" d="M376.38,257.29c-8.55.28-15.44-1.64-20.66-5.75-5.22-4.11-7.97-10.38-8.24-18.82-.49-15.25,9.21-24.64,29.11-28.18l19.68-3.06-.2-6.07c-.18-5.43-1.68-9.02-4.51-10.79-2.83-1.76-8.01-2.52-15.52-2.28-8.9.29-16.44,1.46-22.62,3.5l-.51-15.95c9.02-3.53,19.43-5.48,31.21-5.86,22.3-.72,33.74,7.93,34.32,25.96l2.07,64.3-18.55.6-1.97-7.22-1.04.03c-4.32,6.04-11.85,9.23-22.59,9.58ZM382.99,241.64c6.47-.21,11.27-1.98,14.4-5.32l-.67-20.8-14.68,2.03c-4.38.61-7.55,1.86-9.51,3.78-1.96,1.92-2.88,4.89-2.75,8.94.25,7.86,4.65,11.65,13.21,11.37Z"/>
      <path class="cls-1" d="M438.91,290.97c-8.43.27-14.95-.77-19.55-3.12l-.67-20.84c2.99.84,7.15,1.18,12.45,1,5.62-.18,9.76-1.18,12.44-2.98,2.67-1.8,5.02-5.24,7.05-10.31l3.87-10.91-49.16-107.39,32.31-1.04,30.62,70.26.94-.03,24.63-72.04,29.5-.95-40.23,118.71c-7.92,25.72-22.65,38.93-44.19,39.63Z"/>
    </g>
  </g>
</svg>