<?xml version="1.0" encoding="UTF-8"?>
<svg id="_레이어_2" data-name="레이어 2" xmlns="http://www.w3.org/2000/svg" viewBox="0 0 719.31 410.06">
  <defs>
    <style>
      .cls-1 {
        fill: #d1f353;
      }

      .cls-2 {
        fill: #fff;
        stroke: #4d4d4d;
        stroke-miterlimit: 10;
        stroke-width: .25px;
      }
    </style>
  </defs>
  <g id="_레이어_1-2" data-name="레이어 1">
    <g>
      <polyline points="644.8 410.06 684.51 183.72 630.06 53.58 0 29.95 76.6 394.03"/>
      <polyline class="cls-1" points="679.59 380.11 719.31 153.77 664.85 23.63 34.8 0 111.39 364.09"/>
      <g>
        <path class="cls-2" d="M200.56,278.06c-23.65,0-42.91-3.85-57.76-11.55v-29.98c17.97,7.7,36.03,11.55,54.18,11.55,22.92,0,34.38-8.25,34.38-24.75,0-7.33-1.88-12.79-5.64-16.37-3.76-3.57-10.68-6.64-20.77-9.21l-17.05-4.4c-14.85-3.85-25.99-9.9-33.42-18.15-7.43-8.25-11.14-20.63-11.14-37.13s5.5-29.98,16.5-39.88c11-9.9,27.05-14.85,48.13-14.85s38.14,3.4,51.71,10.18v29.43c-18.52-6.42-34.93-9.63-49.23-9.63-19.8,0-29.71,7.34-29.71,22,0,6.6,1.74,11.6,5.23,14.99,3.48,3.4,9.72,6.28,18.7,8.66l16.5,4.4c16.68,4.4,28.97,10.68,36.86,18.84,7.88,8.16,11.83,20.49,11.83,36.99,0,18.7-5.82,33.19-17.47,43.46-11.65,10.27-28.93,15.4-51.85,15.4Z"/>
        <path class="cls-2" d="M253.87,292.44l42.43-128.73,21.44,7.07-2.87,8.71.85.28c8.35-5.11,17.97-5.88,28.86-2.29,10.1,3.33,17.07,9.92,20.93,19.77,3.86,9.86,2.96,23.37-2.7,40.53l-.7,2.13c-11.61,35.23-30.75,48.45-57.41,39.67-7.94-2.62-13.95-6.53-18.02-11.73l-10.53,31.94-22.29-7.35ZM307.43,259.87c6.81,2.24,12.68,1.6,17.61-1.92,4.94-3.52,9.27-10.96,13.02-22.32l1.21-3.68c3.74-11.35,4.75-19.75,3.02-25.19-1.73-5.43-5.94-9.26-12.64-11.46-7.04-2.32-13.34-2.46-18.91-.44l-17.99,54.59c2.98,4.7,7.87,8.17,14.68,10.42Z"/>
        <path class="cls-2" d="M423.97,283.46c-16.87,0-29.8-4.71-38.79-14.11-8.99-9.41-13.49-22.76-13.49-40.04v-2.93c0-17.28,4.81-30.81,14.43-40.57,9.62-9.76,22.3-14.64,38.06-14.64,16.73,0,29.62,4.71,38.68,14.11,9.06,9.41,13.59,22.83,13.59,40.25v2.93c0,17.43-4.81,30.95-14.43,40.57-9.62,9.62-22.31,14.43-38.06,14.43ZM424.39,263.38c15.89,0,23.84-10.94,23.84-32.83v-5.02c0-12.68-2.16-21.54-6.48-26.56-4.32-5.02-10.32-7.53-17.98-7.53-15.89,0-23.84,11.08-23.84,33.25v4.6c0,12.55,2.16,21.37,6.48,26.45,4.32,5.09,10.32,7.63,17.98,7.63Z"/>
        <path class="cls-2" d="M482.29,286.43v-108.32h26.35v12.76h1.04c2.93-4.18,6.9-7.53,11.92-10.04,5.02-2.51,10.38-3.76,16.1-3.76,3.48,0,5.57.28,6.27.84v24.26c-3.07-.55-5.93-.84-8.57-.84-9.62,0-18.19,2.23-25.72,6.69v78.41h-27.39Z"/>
        <path class="cls-2" d="M590.19,297.5c-10.32,0-18.19-2.9-23.63-8.71-5.44-5.8-8.16-15.41-8.16-28.84v-78.62h-10.41v-26.39h10.41v-33.19h26.97v33.19h24.88v26.39h-24.88v72.91c0,5.99,1.08,10.16,3.24,12.51,2.16,2.36,5.82,3.54,10.98,3.54,4.46,0,8.36-.72,11.71-2.18v23.67c-5.58,3.81-12.62,5.71-21.12,5.71Z"/>
      </g>
    </g>
  </g>
</svg>