<?xml version="1.0" encoding="UTF-8"?>
<svg id="_레이어_2" data-name="레이어 2" xmlns="http://www.w3.org/2000/svg" viewBox="0 0 665.85 428.34">
  <defs>
    <style>
      .cls-1 {
        fill: #70aa54;
      }

      .cls-2 {
        fill: #fff;
        stroke: #4d4d4d;
        stroke-miterlimit: 10;
        stroke-width: .25px;
      }
    </style>
  </defs>
  <g id="_레이어_1-2" data-name="레이어 1">
    <g>
      <polyline points="53.04 348.55 337.11 409.07 591.97 330.57 642.03 127.39 429.94 0 89.87 70.47 0 221.62"/>
      <polygon class="cls-1" points="23.82 240.89 113.7 89.74 453.76 19.28 665.85 146.67 615.8 349.85 360.93 428.34 76.86 367.82 23.82 240.89"/>
      <g>
        <path class="cls-2" d="M144.51,187.4l23.12,89.82,24.76-89.82h26.73l24.11,90.19,23.94-90.19h28.7l-37.39,140.56h-28.37l-26.08-96.48-26.57,96.48h-26.24l-36.57-140.56h29.85Z"/>
        <path class="cls-2" d="M368.29,282.62l-6.4,51.92-25.39-3.13,1.22-9.93c-7.27,6.7-17.7,9.55-31.05,7.9-19.04-2.35-29.74-13.41-27.8-29.2,1.77-14.32,12.39-24.09,36.82-25.21l27.91-1.19c1.08-8.79-3.83-14.52-14.08-15.78-9.93-1.22-15.19,2.59-16.68,9.35l-25.72-3.17c2.53-16.54,18.15-30.65,45.01-27.34,26.21,3.23,39.38,19.72,36.17,45.77ZM315.55,309.67c14,1.73,24.24-4.94,25.66-16.5l.16-1.3-21.26.85c-11.29.43-14.36,3.85-14.94,8.57-.5,4.07,3.04,7.48,10.37,8.38Z"/>
        <path class="cls-2" d="M403.97,187.4v141.38h-25.58v-141.38h25.58Z"/>
        <path class="cls-2" d="M456.9,187.91v79.38l47.63-37.21h44.67l-61.7,48.2,63.68,50.5h-44.92l-49.36-38.63v38.63h-38.5v-140.87h38.5Z"/>
      </g>
    </g>
  </g>
</svg>