<?xml version="1.0" encoding="UTF-8"?>
<svg id="_레이어_2" data-name="레이어 2" xmlns="http://www.w3.org/2000/svg" viewBox="0 0 503.44 433.8">
  <g id="_레이어_1-2" data-name="레이어 1">
    <g>
      <path d="M64.72,365.24c2.01,18.39,4.93,36.4,7.99,55.31-19.42,1.66-37.23,4.04-55.76,6.91-3.41-18.94-5.77-36.83-7.9-55.36l-3.39-34.4-.97-11.92-1.02-11.96-1.01-14.98-1.04-10.96c-.53-5.59-.57-10.81-.74-16.36l-.77-25.43c-.91-30.12,4.06-71.88,10.32-101.82,3.61-17.26,9.81-32.49,18.08-47.85,17.72-32.95,45.17-57.89,80.18-71.64,23.59-9.26,48.05-14.3,73.45-16.46,10.99-.94,21.01-.41,31.94.11l10.47.51c14.57,1.79,28.81,3.32,42.79,8.26,1.98.7,2.26,4.29,1.51,6.07-3.93,9.42-7.07,18.5-9.69,28.25l-5.42,20.16c-11.74-3.96-23.61-6.78-36.14-6.79l-35.16-.05c-19.09,1.63-37.23,5.77-54.81,12.86-13.8,5.56-25.25,13.77-35.1,24.91-26.37,29.81-31.16,64.56-34.56,103.45,3.71-1.73,5.31-4.13,8.16-6.47,31.87-26.07,71.04-41.76,112.15-46.13l18.69-.47,22.23.16c12.13-39.07,29.24-74.91,61.37-101.14l5.54-4.52C324.68,16.01,371.21,3.43,420.22.04l37.17-.04c16.02,1.27,31.14,4.41,46.04,9.63l-13.85,30.95-8.81,20.47c-18.78-5.24-37.36-6.92-56.4-5.16-16.03,1.48-31.06,3.1-46.74,7.39-32.3,8.83-61.65,26.79-81.19,54.37-10.8,15.24-17.14,32.52-22.87,51.06,24.61-14.32,50.1-22.01,77.52-25.29,0,0,20.17-.64,24.83-.56,14.66.26,28.65,2.02,42.66,6.5,9.56,3.06,18.74,5.65,27.65,10.58-.88,3.96-2.33,6.94-4.63,10.62l-16.19,26.13c-2.55,4.04-5.16,7.68-6.69,12.28-11.73-4.69-23.31-9.61-36.03-9.58l-25.5.07c-9.79.03-18.74,3.04-28.14,5.82-16.55,4.9-31.75,13.64-43.55,26.01-12.46,13.07-15.73,35.17-17.74,53.61-1.59,14.55.05,31.73,1.24,41.61.51,4.23,5.63,27.38,6.53,31.81l11.28,55.55c-4.29,3.36-9.73,2.38-13.79,3.79s-7.43,1.69-11.41,2.56l-12.19,2.67-17.04,3.81-8.01-37.54c-6.19-29.01-10.93-57.74-14.48-87.23-.68-5.65-.68-10.57-.99-16.09-.25-4.59-1.69-20.42-1.03-76.88l-22.58.35c-30.63,3.16-59.89,14.36-83.61,33.96l-13.91,14.08c-12.44,12.58-27.36,46.7-27.63,64.41"/>
      <g>
        <path d="M153.68,347.32l40.79-3.06c4.97,21.9,1.82,50.2-10.99,67.97-2.97,4.12-7.05,7.75-10.91,10.9-21.56,17.62-54.92,12.02-72.48-7.22-15.62-17.12-25.28-49.97-21.1-73.11l27.34,2.38c4.68.41,9.08-.38,14.18,1.93-5.53,8.52.84,26.92,6.31,36.86,2.92,5.31,7.66,8.52,13.67,9.47,5.98.33,10.18-3.6,12.26-9.08,4.48-11.82,4.28-23.93.94-37.05Z"/>
        <path d="M301.1,354c11.72.38,23.07-.66,35.12-1.85,1.9,19.24,4.61,42,24.19,42.28,6.68.1,13.8-2.63,18.38-10.55,3.74-6.47,5.95-22.29,5.66-34.48,3.08-.26,10.87,1.03,22.59,1.72,6.51.38,11.74.26,17.23.38.77,6-.24,14.98-.23,15.24-1.98,19.54-9.78,45.29-27.06,55.45-14.55,8.56-31.09,12.57-48.35,11.43-22.49-1.49-38.1-18.54-45.28-39.47-4.48-13.08-6.86-26.37-7.73-40.19"/>
      </g>
    </g>
  </g>
</svg>