<svg xmlns="http://www.w3.org/2000/svg" xmlns:xlink="http://www.w3.org/1999/xlink" width="98" height="98" viewBox="0 0 98 98">
  <defs>
    <filter id="타원_49" x="0" y="0" width="98" height="98" filterUnits="userSpaceOnUse">
      <feOffset input="SourceAlpha"/>
      <feGaussianBlur stdDeviation="3" result="blur"/>
      <feFlood flood-opacity="0.2"/>
      <feComposite operator="in" in2="blur"/>
      <feComposite in="SourceGraphic"/>
    </filter>
    <clipPath id="clip-path">
      <circle id="타원_48" data-name="타원 48" cx="40" cy="40" r="40" fill="#1a1a1a"/>
    </clipPath>
  </defs>
  <g id="그룹_266" data-name="그룹 266" transform="translate(-911 -2696)">
    <g transform="matrix(1, 0, 0, 1, 911, 2696)" filter="url(#타원_49)">
      <circle id="타원_49-2" data-name="타원 49" cx="40" cy="40" r="40" transform="translate(9 9)" fill="#fff"/>
    </g>
    <g id="마스크_그룹_10" data-name="마스크 그룹 10" transform="translate(920 2705)" clip-path="url(#clip-path)">
      <g id="레이어_1" data-name="레이어 1" transform="matrix(0.995, 0.105, -0.105, 0.995, 22.381, 4.833)">
        <g id="그룹_166" data-name="그룹 166" transform="translate(0 0)">
          <g id="그룹_163" data-name="그룹 163" transform="translate(0 0)">
            <path id="패스_527" data-name="패스 527" d="M.864,17.972A2.335,2.335,0,0,1,0,18.085,8.789,8.789,0,0,1,.3,16.6l.964-4,.282-.964A19.36,19.36,0,0,1,3.556,7.38,14.078,14.078,0,0,1,6.726,3.7,14.443,14.443,0,0,1,13.07.386L14.9,0h2.265a5.7,5.7,0,0,1,2,.41A17.48,17.48,0,0,1,24.849,3.8l1.635,1.59,1.4,1.5a29.931,29.931,0,0,1,3.095,3.91L32.2,12.643Z" transform="translate(2.541 0)" fill="#1a1a1a"/>
            <path id="패스_528" data-name="패스 528" d="M5.872,9.686l-5.322.905A18.852,18.852,0,0,1,.124,7.377L0,6.385,37.593,0l.664,2.551.306,1.566L5.869,9.686Z" transform="translate(3.301 34.133)" fill="#1a1a1a"/>
            <path id="패스_529" data-name="패스 529" d="M1.377,10.316.224,7.356,0,6.361,37.458,0l.3,4.12Z" transform="translate(5.195 44.064)" fill="#1a1a1a"/>
            <path id="패스_530" data-name="패스 530" d="M37.262,3.487,0,9.824.024,6.131,36.137,0l.534,1.47Z" transform="translate(3.27 29.407)" fill="#1a1a1a"/>
            <path id="패스_531" data-name="패스 531" d="M33.162,3.835,0,9.459A33.1,33.1,0,0,1,.709,5.187L31.224,0,32.7,2.912Z" transform="translate(3.935 19.793)" fill="#1a1a1a"/>
            <path id="패스_532" data-name="패스 532" d="M0,9.2.341,7.821c.176-.713.417-1.38.647-2.079l.465-1.415L26.911,0C27.8,1.342,28.681,2.7,29.5,4.186L0,9.2Z" transform="translate(4.974 14.423)" fill="#1a1a1a"/>
            <rect id="사각형_2179" data-name="사각형 2179" width="38.56" height="3.373" transform="matrix(0.986, -0.167, 0.167, 0.986, 4.081, 45.945)" fill="#1a1a1a"/>
            <path id="패스_533" data-name="패스 533" d="M35.93,3.539,1.924,9.328a1.812,1.812,0,0,1-.771-.771L0,6.1,35.909,0l.021,2.1Z" transform="translate(7.108 49.475)" fill="#1a1a1a"/>
            <path id="패스_534" data-name="패스 534" d="M9.759,7.762,0,9.425C.107,8.881.079,8.4.134,7.914L.382,5.766,34.336,0l1.339,3.36L9.759,7.766Z" transform="translate(3.356 24.815)" fill="#1a1a1a"/>
            <path id="패스_535" data-name="패스 535" d="M2.465,4.864,0,5.27l.176-.843L.988.509,3.866,0l-.54,1.79A18.867,18.867,0,0,0,2.465,4.864Z" transform="translate(1.15 18.991)" fill="#1a1a1a"/>
            <path id="패스_536" data-name="패스 536" d="M4.6,4.231l-2.038.358C1.776,3.143.933,1.8,0,.375L2.275,0A35.554,35.554,0,0,1,4.6,4.231Z" transform="translate(33.263 13.807)" fill="#1a1a1a"/>
            <path id="패스_537" data-name="패스 537" d="M3.663,3.928,1.4,4.313a2.407,2.407,0,0,1-.427-1C.609,2.358.3,1.439,0,.4L2.3,0a15.088,15.088,0,0,0,.836,2.554l.523,1.377Z" transform="translate(1.611 50.649)" fill="#1a1a1a"/>
            <path id="패스_538" data-name="패스 538" d="M0,4.613a3.391,3.391,0,0,0,.041-.881L.386,1.181C.423.912.365.637.547.392L2.833,0c-.3,1.435-.485,2.785-.657,4.241Z" transform="translate(0.448 25.218)" fill="#1a1a1a"/>
            <path id="패스_539" data-name="패스 539" d="M.355,4.578.169,3.163A17.169,17.169,0,0,1,.083,1.429,3.574,3.574,0,0,1,.035.358L2.048,0l.22,2.165L2.613,4.2Z" transform="translate(0 40.735)" fill="#1a1a1a"/>
            <path id="패스_540" data-name="패스 540" d="M2.427,4.117.3,4.485,0,.382,2.255,0A17.19,17.19,0,0,0,2.4,1.907Z" transform="translate(43.923 43.479)" fill="#1a1a1a"/>
            <path id="패스_541" data-name="패스 541" d="M3.057,4.079l-2.1.365A31.776,31.776,0,0,0,0,.351L2,0A38.515,38.515,0,0,1,3.053,4.076Z" transform="translate(42.161 33.593)" fill="#1a1a1a"/>
            <path id="패스_542" data-name="패스 542" d="M3.921,3.277l-2.6.441L.234,1.174A2.227,2.227,0,0,1,0,.4L2.334,0,3.466,2.482Z" transform="translate(3.467 55.799)" fill="#1a1a1a"/>
            <path id="패스_543" data-name="패스 543" d="M1.979,4.144.73,1.721,0,.327,1.948,0,3.79,3.824Z" transform="translate(36.498 19.249)" fill="#1a1a1a"/>
            <path id="패스_544" data-name="패스 544" d="M3.074,3.212.726,3.587,0,.382,2.31,0Z" transform="translate(0.513 46.195)" fill="#1a1a1a"/>
            <path id="패스_545" data-name="패스 545" d="M2.034,3.542l-2,.327L0,.351,2.1,0,2.065,1.7Z" transform="translate(44.305 48.918)" fill="#1a1a1a"/>
            <path id="패스_546" data-name="패스 546" d="M.061,3.955A13.5,13.5,0,0,1,.15,1.184L.174.348,2.322,0,2,3.625l-1.938.33Z" transform="translate(0.101 30.822)" fill="#1a1a1a"/>
            <path id="패스_547" data-name="패스 547" d="M1.122,3.831.761,2.737,0,.327,1.99,0,3.1,3.446Z" transform="translate(40.715 28.856)" fill="#1a1a1a"/>
            <path id="패스_548" data-name="패스 548" d="M0,3.986.014,1.108.107.31,1.986,0l0,3.659Z" transform="translate(0.017 35.782)" fill="#1a1a1a"/>
            <path id="패스_549" data-name="패스 549" d="M2.644,3.2.41,3.614,0,.334,2.093,0l.348,1.914a5.352,5.352,0,0,0,.2,1.284Z" transform="translate(43.369 38.959)" fill="#1a1a1a"/>
            <path id="패스_550" data-name="패스 550" d="M3.243,3.349l-1.924.324L0,.3,1.848,0l.809,1.842Z" transform="translate(38.984 24.292)" fill="#1a1a1a"/>
          </g>
          <g id="그룹_165" data-name="그룹 165" transform="translate(5.398 53.771)">
            <path id="패스_551" data-name="패스 551" d="M6.95,46.549l.4-2.843.172-1.336.172-1.89.169-1.649.179-2.141.083-1.645.079-1V30.67l-.083-1.4-.076-1.652c-.041-.892-.148-1.735-.179-2.62L7.69,23.837,7.5,22.729a22.8,22.8,0,0,0-2.289-6.11l-.8-1.446-1.6-2.764A46.329,46.329,0,0,1,0,6.946L40.87,0a38.926,38.926,0,0,1-.427,5.9l-1.222,9.242-.372,1.869a28.7,28.7,0,0,0-.8,4.172l-1.033,6.045-.392,2.358-.182.9-.165.823-.155,1.005-.162,1.163L35.8,35.2l-.114,1.108-.069,4.816.028,1.928a5.984,5.984,0,0,0,.182,1.921L6.561,48.594l.389-2.045Z" fill="#1a1a1a"/>
            <g id="그룹_164" data-name="그룹 164" transform="translate(4.437 46.25)">
              <path id="패스_552" data-name="패스 552" d="M25.7,3.69.035,6.874A21.153,21.153,0,0,1,.162,3.126L25.359,0A24.452,24.452,0,0,1,25.7,3.69Z" transform="translate(3.238 10.43)" fill="#1a1a1a"/>
              <path id="패스_553" data-name="패스 553" d="M24.96,3.755,0,6.854A27.229,27.229,0,0,1,.644,2.916L24.171,0l.337,1.411.447,2.344Z" transform="translate(3.483 5.391)" fill="#1a1a1a"/>
              <path id="패스_554" data-name="패스 554" d="M0,6.313.726,4.165a7.992,7.992,0,0,1,.768-1.642L21.817,0,22.86,3.473Z" transform="translate(4.554 0.644)" fill="#1a1a1a"/>
              <path id="패스_555" data-name="패스 555" d="M23.948,3.212,1.126,6.048A11.791,11.791,0,0,1,0,3.088L24.891,0A12.53,12.53,0,0,1,23.948,3.212Z" transform="translate(3.879 19.335)" fill="#1a1a1a"/>
              <path id="패스_556" data-name="패스 556" d="M9.9,6.344a3.673,3.673,0,0,1-1.38.024L7.47,6.155A12.669,12.669,0,0,1,0,2.754L22.306,0a15.882,15.882,0,0,1-3.428,3.057,19.922,19.922,0,0,1-5.284,2.458l-1.088.4-2.6.427Z" transform="translate(5.672 28.46)" fill="#1a1a1a"/>
              <path id="패스_557" data-name="패스 557" d="M25.579,2.6.317,5.731,0,3.181,25.648,0a14.9,14.9,0,0,1-.065,2.6Z" transform="translate(3.345 15.418)" fill="#1a1a1a"/>
              <path id="패스_558" data-name="패스 558" d="M18.216,3.663,2.358,5.638A11.585,11.585,0,0,1,0,2.606L21.035,0a11.017,11.017,0,0,1-2.819,3.659Z" transform="translate(6.103 23.934)" fill="#1a1a1a"/>
              <path id="패스_559" data-name="패스 559" d="M4.113,2.3A3.85,3.85,0,0,1,4.2,3.576l-3.174.375L0,.485,3.866,0l.182,1.343A3.276,3.276,0,0,0,4.113,2.3Z" transform="translate(27.675)" fill="#1a1a1a"/>
              <path id="패스_560" data-name="패스 560" d="M3.68,3.759l-1.2.186-1.69.2L0,.4,3.194,0l.3,2.354Z" transform="translate(28.956 4.85)" fill="#1a1a1a"/>
              <path id="패스_561" data-name="패스 561" d="M3.225,2.712a2,2,0,0,1,.165.95l-3.05.406A27.143,27.143,0,0,0,0,.362L2.864,0l.244,1.821a2.805,2.805,0,0,1,.117.895Z" transform="translate(29.882 9.9)" fill="#1a1a1a"/>
              <path id="패스_562" data-name="패스 562" d="M0,3.849a2.46,2.46,0,0,1,.489-.874A19.539,19.539,0,0,0,2.069.282L4.792,0A17.645,17.645,0,0,1,2.558,3.542L0,3.845Z" transform="translate(26.66 23.448)" fill="#1a1a1a"/>
              <path id="패스_563" data-name="패스 563" d="M.24,3.539c-.1.014-.207,0-.234-.048s.028-.12.1-.175L.87.344,3.658,0a16.331,16.331,0,0,1-.867,3.191L.24,3.542Z" transform="translate(29.273 18.836)" fill="#1a1a1a"/>
              <path id="패스_564" data-name="패스 564" d="M.954,3.9A4.148,4.148,0,0,1,0,3.959L.7.31,3.315,0,1.99,3.742.957,3.9Z" transform="translate(1.136 3.377)" fill="#1a1a1a"/>
              <path id="패스_565" data-name="패스 565" d="M2.916,2.6,0,2.984.052.372,3.129,0A7.8,7.8,0,0,1,3.06,1.583,2.375,2.375,0,0,1,2.919,2.6Z" transform="translate(30.233 14.867)" fill="#1a1a1a"/>
              <path id="패스_566" data-name="패스 566" d="M0,3.969l.038-2.1L.189.255,2.083,0a19.264,19.264,0,0,0-.1,3.725Z" transform="translate(0.01 13.721)" fill="#1a1a1a"/>
              <path id="패스_567" data-name="패스 567" d="M1.842,3.914,0,4.113.568.22,2.447,0l-.3,1.563Z" transform="translate(0.302 8.502)" fill="#1a1a1a"/>
              <path id="패스_568" data-name="패스 568" d="M2.485,3.28c-.268.038-.386-.11-.53-.289A21.958,21.958,0,0,1,0,.306L2.055,0,4.313,3.026l-1.828.251Z" transform="translate(2.251 26.76)" fill="#1a1a1a"/>
              <path id="패스_569" data-name="패스 569" d="M3.112,2.936,1.04,3.218A15.887,15.887,0,0,1,0,.275L2.093,0A15.377,15.377,0,0,0,3.112,2.936Z" transform="translate(0.499 22.581)" fill="#1a1a1a"/>
              <path id="패스_570" data-name="패스 570" d="M.244,2.843.072,1.508A5.3,5.3,0,0,1,.017.268L2.055,0l.324,2.568L.247,2.843Z" transform="translate(0 18.746)" fill="#1a1a1a"/>
            </g>
          </g>
        </g>
      </g>
    </g>
  </g>
</svg>
