<svg xmlns="http://www.w3.org/2000/svg" xmlns:xlink="http://www.w3.org/1999/xlink" width="98" height="98" viewBox="0 0 98 98">
  <defs>
    <filter id="타원_47" x="0" y="0" width="98" height="98" filterUnits="userSpaceOnUse">
      <feOffset input="SourceAlpha"/>
      <feGaussianBlur stdDeviation="3" result="blur"/>
      <feFlood flood-opacity="0.2"/>
      <feComposite operator="in" in2="blur"/>
      <feComposite in="SourceGraphic"/>
    </filter>
  </defs>
  <g id="그룹_169" data-name="그룹 169" transform="translate(-2016.701 -2271.701)">
    <g transform="matrix(1, 0, 0, 1, 2016.7, 2271.7)" filter="url(#타원_47)">
      <ellipse id="타원_47-2" data-name="타원 47" cx="40" cy="40" rx="40" ry="40" transform="translate(9 9)" fill="#fff"/>
    </g>
    <g id="레이어_1" data-name="레이어 1" transform="translate(2043.009 2301.059)">
      <g id="그룹_168" data-name="그룹 168" transform="translate(0)">
        <path id="패스_571" data-name="패스 571" d="M5.863,33.075c.182,1.665.446,3.3.724,5.009-1.759.15-3.371.366-5.049.626-.309-1.715-.523-3.335-.715-5.013L.514,30.581.427,29.5.334,28.418.243,27.062l-.094-.992C.1,25.563.1,25.09.082,24.588l-.07-2.3a44.328,44.328,0,0,1,.935-9.22A15.785,15.785,0,0,1,2.584,8.731,13.945,13.945,0,0,1,9.844,2.244,23.476,23.476,0,0,1,16.5.753a21.114,21.114,0,0,1,2.892.01l.948.046a17.943,17.943,0,0,1,3.875.748c.179.063.2.388.137.55a20.022,20.022,0,0,0-.877,2.558L22.98,6.491a10.2,10.2,0,0,0-3.273-.615l-3.184,0A17,17,0,0,0,11.56,7.036,8.3,8.3,0,0,0,8.381,9.292c-2.388,2.7-2.822,5.846-3.13,9.368a3.249,3.249,0,0,0,.739-.586A19.223,19.223,0,0,1,16.146,13.9l1.692-.043,2.013.014c1.1-3.538,2.648-6.784,5.557-9.159l.5-.409C29.4,1.45,33.617.311,38.055,0l3.366,0A16.375,16.375,0,0,1,45.59.872l-1.254,2.8-.8,1.854a13.961,13.961,0,0,0-5.107-.467A23.931,23.931,0,0,0,34.2,5.73a13.093,13.093,0,0,0-7.352,4.924,15.91,15.91,0,0,0-2.071,4.624,17.848,17.848,0,0,1,7.02-2.29s1.827-.058,2.248-.051a13.237,13.237,0,0,1,3.863.589,13.4,13.4,0,0,1,2.5.958,2.889,2.889,0,0,1-.419.962l-1.466,2.366a5.093,5.093,0,0,0-.606,1.112,8.793,8.793,0,0,0-3.263-.868l-2.309.006a9.039,9.039,0,0,0-2.548.527,8.928,8.928,0,0,0-3.944,2.355c-1.128,1.184-1.424,3.185-1.606,4.855a17.855,17.855,0,0,0,.112,3.768c.046.383.51,2.479.591,2.881l1.021,5.03c-.388.3-.881.216-1.249.343a8.11,8.11,0,0,1-1.033.232l-1.1.242-1.543.345-.725-3.4c-.561-2.627-.99-5.229-1.311-7.9-.062-.512-.062-.957-.09-1.457-.023-.416-.153-1.849-.093-6.962l-2.045.032A14.089,14.089,0,0,0,9.21,22.029L7.95,23.3a11.451,11.451,0,0,0-2.5,5.833" transform="translate(-0.002)"/>
        <g id="그룹_167" data-name="그룹 167" transform="translate(7.064 31.042)">
          <path id="패스_572" data-name="패스 572" d="M84.866,343.209l3.694-.277a8.166,8.166,0,0,1-1,6.155,5.481,5.481,0,0,1-.988.987,4.949,4.949,0,0,1-6.563-.654A8.8,8.8,0,0,1,78.1,342.8l2.476.216a3.412,3.412,0,0,1,1.284.175c-.5.772.076,2.438.571,3.338a1.653,1.653,0,0,0,1.238.858,1.124,1.124,0,0,0,1.11-.822,5.412,5.412,0,0,0,.085-3.355Z" transform="translate(-78.014 -342.8)"/>
          <path id="패스_573" data-name="패스 573" d="M296.116,349.786a24.1,24.1,0,0,0,3.18-.168c.172,1.742.417,3.8,2.191,3.829a1.822,1.822,0,0,0,1.664-.955,7.515,7.515,0,0,0,.513-3.122c.279-.024.984.093,2.046.156.59.034,1.063.024,1.56.034a7.644,7.644,0,0,1-.021,1.38c-.179,1.769-.886,4.1-2.45,5.021A7.575,7.575,0,0,1,300.42,357a4.826,4.826,0,0,1-4.1-3.574,13.785,13.785,0,0,1-.7-3.639" transform="translate(-275.915 -348.771)"/>
        </g>
      </g>
    </g>
  </g>
</svg>
