<?xml version="1.0" encoding="UTF-8"?>
<svg id="_레이어_2" data-name="레이어 2" xmlns="http://www.w3.org/2000/svg" viewBox="0 0 134.87 392.3">
  <defs>
    <style>
      .cls-1 {
        fill: #e58b92;
      }
    </style>
  </defs>
  <g id="_레이어_1-2" data-name="레이어 1">
    <g>
      <path class="cls-1" d="M35.34,370.17c-3.5-5.24-6.68-14.86-6.68-20.84v-13.28s.24-4.07.24-4.07l.66-5.58.43-3.28.35-2.72,1.48-8.53,1.52-7.82.89-4.99.58-2.69,1.45-8.03.66-5.18.49-4.26.79-8.48.43-4.99.65-10.2c.19-3.01.17-5.86,0-8.89l-.66-11.77-.16-4.23-.41-2.85c-1.25-8.73-3.33-15.03-7.54-22.78l-3.05-5.62-2.25-3.83-1.1-1.76c-5.9-9.4-12.57-24.77-16.4-35.46-2.35-6.57-4.38-13.11-5.85-19.92l-.6-3.31c-.57-3.17-.8-6.24-.98-9.43l-.26-4.7.02-12.31.25-8.13.17-5.25.25-3.19.46-5.35.62-5.22.41-3.71.6-3.76.53-3.37,1.03-5.15,1.32-6.2.42-2.16.64-2.59.44-2.18,3.31-13.65.32-1.46c.98-4.39,2.94-8.32,5.03-12.29,4.27-8.12,9.08-12.98,16.68-18.04,4.87-3.25,10.33-5.03,16.06-6.12C51.22.04,52.33-.04,54.99.02c3.05.07,5.8.37,8.61,1.46,9.3,3.59,15.28,8.31,22.01,15.54,3.4,3.65,6.65,7.15,9.6,11.23,4.9,6.76,9.59,13.48,13.23,21.01l8.13,16.82,2.96,6.42c4.04,8.77,7.04,17.8,9.45,27.14l2.27,8.79.43,2.37.4,2,1.66,10.11c1.05,6.38,1.17,12.6,1.1,19.08l-.15,14.8-.5,8.19-.66,6.99-4,29.86-1.7,7.37-.86,4.56-.83,5.72-3.27,18.61-.76,5.18-.46,2.57c-1.17,6.49-1.87,12.87-2.12,19.49l-.05,17.26,1.12,10.47.49,4.72.63,4.33.39,3.1.67,4.57.36,2.89.61,4.64.65,6.3,1.1,7.37c.46,3.05.22,6.03-.2,9.12-.52,3.8-1.1,7.45-2.17,11.11-1.69,5.8-4.35,11.11-7.83,15.98l-1.46,2.05-5.26,6.21-1.97,1.97-5.03,4.11c-5.64,4.11-11.96,6.9-18.66,8.88-1.29.38-2.29,1.11-3.76,1.01l-2.51.44-3.25.46h-3.22s-4.89-.9-4.89-.9l-4.02-.75c-2.38-.45-4.56-1.29-6.78-2.32-3.59-1.68-6.74-3.69-9.63-6.47-3.65-3.5-6.73-7.45-9.55-11.67ZM120.19,189.77c1.21-.08,1.84-.98,1.88-1.91s-.79-1.67-1.83-1.84l-22.45-.02v-15.5s22.71,0,22.71,0c1.1-.13,1.77-.94,1.8-1.93.02-.83-.66-1.54-1.63-1.84h-22.88s0-13.27,0-13.27h23.69c1.14-.26,1.92-.98,1.88-2.04-.03-.83-.79-1.74-1.88-1.75l-23.69-.05-.03-4.61c0-1.16-1.01-1.9-2.07-1.8-.98.1-1.68.9-1.61,2.03l-.03,4.39h-14.76s0-13.85,0-13.85h43.38c1.16-.05,1.85-.89,1.82-1.94-.02-.77-.77-1.8-1.88-1.8l-43.28-.02-.04-3.49c-.01-1.13-.82-1.82-1.85-1.86-.94-.04-1.89.64-1.91,1.75l-.08,3.6h-17.62s0-14.78,0-14.78h36s0,9.11,0,9.11c0,1.18.74,2,1.86,2.01.84,0,1.8-.76,1.8-1.82l.04-9.3h21.01c.96,0,1.62-.94,1.69-1.64.08-.88-.36-1.69-1.27-1.98-.78-.25-1.54-.23-2.37-.08h-19.07s.02-13.38.02-13.38h20.35c1.2-.1,1.96-.82,1.96-1.9,0-.92-.7-1.65-1.78-1.86h-20.55s.02-13.59.02-13.59h13c1.14-.02,1.93-.86,1.92-1.9,0-.88-.7-1.78-1.75-1.78l-13.17-.03-.05-4.59c-.01-1.1-1.07-1.78-2-1.69s-1.65.84-1.69,1.88v4.41s-13.34,0-13.34,0l-.02-14.83h19.66c1.19-.05,1.95-.8,1.98-1.83s-.68-1.78-1.87-1.96h-19.76s0-13.1,0-13.1l12.07-.03c1.15.01,1.84-.58,1.95-1.66.08-.76-.49-1.95-1.57-1.96l-12.44-.09-.06-11.03c0-1.06-1.16-1.77-2.01-1.66-.92.12-1.62.86-1.63,1.9l-.03,10.82h-41.56s-.04-19.19-.04-19.19c0-1.03-1.16-1.64-1.94-1.63s-1.81.75-1.82,1.76l-.02,19.04c-1.14.16-1.78.9-1.77,1.87s.61,1.76,1.78,1.86v13.07s-12.27.06-12.27.06c-1.12,0-1.99.96-1.95,1.89.04,1.04.77,1.71,1.88,1.86l12.34.02v14.82s-20.57.01-20.57.01c-1.15,0-1.79,1.04-1.73,1.97.07,1.11.94,1.77,2.13,1.71h20.17s0,13.59,0,13.59H12.35c-1.1.26-1.72.87-1.74,1.89-.02.77.61,1.82,1.72,1.82l19.56.06c.87.79,1.95.79,2.8-.02h19.37s0,13.38,0,13.38H12.75c-1.14.06-1.95.86-1.95,1.85,0,.89.7,1.68,1.75,1.85h41.53s-.03,14.78-.03,14.78h-20.14s-.08-5.07-.08-5.07c-.02-1.07-.92-1.69-1.9-1.66-.88.03-1.77.71-1.79,1.78l-.06,4.95-14.91.05c-1.12,0-1.88,1.11-1.79,1.95.12,1.14.88,1.77,2.04,1.77h14.68s0,13.83,0,13.83l-9.12.02c-1.15.05-1.93.92-1.88,1.95.05.95.81,1.82,1.88,1.83l9.12.04v13.22s-1.11.04-1.11.04c-1.22.05-1.98.79-2.01,1.84s.66,1.8,1.8,1.91c.45.04.94-.05,1.31.08l.04,18.62c0,1.28,1.21,2.06,2.21,1.87,1.25-.24,1.67-1.3,1.53-2.74.57.99,1.13,1.54,2.31,1.46h39.33s0,17.02,0,17.02h-27.64c-1.1.07-1.74.94-1.73,1.91,0,.9.73,1.76,1.77,1.78l14.86-.03,12.83.06-.04,14.94c0,.92-.22,1.77.07,2.65.32.96,1.05,1.56,2.07,1.41.66-.09,1.57-.69,1.57-1.68l.05-17.34h14.75c.49.72,1.02,1.35,1.85,1.34.74,0,1.37-.64,1.91-1.31l16.76-.06c1.13,0,1.8-.96,1.75-1.94-.05-.91-.86-1.72-1.87-1.74h-16.66s0-17.02,0-17.02h22.4ZM104.06,319.14c1.36,0,1.95-1.19,1.82-2.1-.15-1.06-.91-1.64-2.14-1.64h-60.57c-1.37,0-2,1.07-1.86,2.18s1,1.59,2.25,1.59l60.5-.03ZM112.1,337.24c1.34,0,2.03-1.04,1.98-2.01-.05-.89-.8-1.78-1.89-1.78H44.69c-1.15,0-1.82,1.06-1.8,1.96.02.75.71,1.82,1.77,1.82h67.45ZM105.09,356.49c1.18-.22,1.79-1.16,1.73-1.96-.04-.6-.75-1.79-1.68-1.79l-61.97-.02c-1.1,0-1.68,1.25-1.64,1.99s.58,1.78,1.63,1.78h61.93ZM91.67,374.1c1.2-.26,1.78-1.08,1.74-2.02s-.67-1.53-1.7-1.74h-39.39c-1.13,0-1.79,1.04-1.76,1.93.03.71.68,1.81,1.73,1.81l39.38.02Z"/>
      <path class="cls-1" d="M57.82,73.98c-.07-1.22-.84-1.92-1.83-1.94s-1.87.65-1.89,1.75l-.08,5.34h-18.84s0-14.84,0-14.84h41.57s0,14.83,0,14.83h-18.92s-.02-5.15-.02-5.15Z"/>
      <rect class="cls-1" x="35.18" y="47.39" width="41.59" height="13.12"/>
      <rect class="cls-1" x="69.13" y="88.86" width="13.38" height="36" transform="translate(-31.04 182.68) rotate(-90)"/>
      <path class="cls-1" d="M76.74,94.35c0,.78.02,1.27.46,2.04l-19.37.02.02-13.6h18.92s-.03,11.53-.03,11.53Z"/>
      <rect class="cls-1" x="35.18" y="82.81" width="18.89" height="13.6"/>
      <path class="cls-1" d="M93.83,96.4h-13.7c.14-.51.36-.94.33-1.5v-12.08s13.36-.01,13.36-.01v13.58Z"/>
      <path class="cls-1" d="M75.51,185.98l-39.56.03c-.95,0-1.41.49-2.1,1.23l-.02-16.75h41.64s.03,15.49.03,15.49Z"/>
      <rect class="cls-1" x="33.85" y="153.43" width="41.65" height="13.3"/>
      <path class="cls-1" d="M57.84,135.78h17.64s.01,13.85.01,13.85h-41.65s0-13.85,0-13.85h20.22s.04,8.8.04,8.8c0,1.11.91,1.82,1.89,1.82s1.79-.76,1.8-1.87l.06-8.75Z"/>
      <rect class="cls-1" x="79.29" y="189.76" width="14.78" height="17.03"/>
      <rect class="cls-1" x="79.29" y="170.49" width="14.78" height="15.51"/>
      <rect class="cls-1" x="79.29" y="153.42" width="14.78" height="13.3"/>
    </g>
  </g>
</svg>