<?xml version="1.0" encoding="UTF-8"?>
<svg id="_레이어_2" data-name="레이어 2" xmlns="http://www.w3.org/2000/svg" viewBox="0 0 134.91 392.53">
  <defs>
    <style>
      .cls-1 {
        fill: #d1fb54;
      }
    </style>
  </defs>
  <g id="_레이어_1-2" data-name="레이어 1">
    <g>
      <path class="cls-1" d="M37.21,222.18l-1.32-4.72c-1.29-4.62-3.3-8.81-5.59-13.04l-2.82-5.2-3.23-5.46-1.64-2.91,35.58-12.13c1.02-.35,1.27-1.65.99-2.29-.36-.84-1.33-1.49-2.41-1.13l-36.04,12.21c-2.39-4.3-4.47-8.61-6.44-13.12s-3.82-8.62-5.49-13.31l35.05-11.91c1.08-.37,1.58-1.23,1.44-2.22-.1-.68-1.16-1.77-2.2-1.41l-35.57,12.03-3.21-9.84c-.94-2.88-1.56-5.67-2.23-8.63l-.51-2.89-.64-3.69c-.23-1.29-.19-2.53-.56-3.98l34.74-11.79c1.01-.34,1.44-1.45,1.18-2.23-.35-1.03-1.35-1.66-2.46-1.28L.24,124.65c.1-1.22-.24-2.15-.24-3.18l.09-15.49.23-4.98.11-6.96,29.36-9.96c1.06-.36,1.61-1.43,1.31-2.31-.38-1.09-1.49-1.6-2.63-1.21L.8,89.94l.83-6.98c.15-1.22.29-2.32.37-3.56.06-1.01.33-2.01.45-3.03.19-1.52.4-2.99.68-4.48l.87-4.57.38-2.02,1.26-5.6,20.01-6.85c.95-.33,1.22-1.52,1.02-2.21-.23-.81-1.21-1.6-2.25-1.25l-17.74,5.93.36-2.5,1.22-5.08.98-3.95.84-3.57c1.27-5.4,3.07-10.4,5.69-15.3s5.63-9.21,9.76-12.81c7.6-6.63,13.25-9.57,23.21-11.52,2.37-.46,4.51-.83,6.97-.47.88.13,1.88.17,2.78.21,2.01.08,3.73.75,5.58,1.44,4.17,1.54,7.97,3.61,11.56,6.21,1.8,1.31,3.46,2.54,5.02,4.11l4.78,4.79c8.48,8.51,16.98,20.92,22.61,31.57.29.54.68.94.55,1.75l-29.19-5.84c-1.21-.24-2.18.13-2.51,1.26-.25.86.23,2.06,1.41,2.3l32.55,6.59c.76.76.96,1.66,1.44,2.54l4.55,9.56c2.4,5.12,4.64,10.13,6.69,15.78l-28.13-5.6-4.85-1.02c-1.05-.22-2,.49-2.22,1.42-.23,1,.4,2.07,1.58,2.31l31.36,6.3c1.29.26,2.35.52,3.66.2l4.16,13.9,2.7,11.16.36,1.81.6,3.26-30.14-6.02c-1.13-.23-2.05.15-2.4,1.11-.26.7,0,2.19,1.13,2.42l31.84,6.44.56,2.27.69,6.26.38,4.18.05,17.2-31.84-6.39c-1.1-.22-1.98.61-2.18,1.46-.18.78.34,1.94,1.39,2.16l32.54,6.61c.23,1.95.04,3.73-.1,5.61l-.7,9.35-.63,5.42-.65,4.98-.54,3.5-29.57-5.94c-1.12-.22-2.04.32-2.31,1.34-.23.86.25,2.04,1.37,2.26l30.08,6.08-2.2,16.22-.72,3.05c-1.17,4.17-1.86,8.35-2.49,12.71l-46.92-9.5c-.97-.2-1.25-.64-2.34-.27l-39.88,13.54Z"/>
      <path class="cls-1" d="M78.03,391.72l-4.2.67c-2.5.4-4.75-.16-7.18-.61s-4.79-.7-7.13-1.55l-4.96-1.81c-3.6-1.67-6.72-3.73-9.62-6.45-2.35-2.21-4.41-4.53-6.3-7.15l-2.85-3.95,22.43-7.79c1.06-.37,1.5-1.61,1.06-2.48-.5-1.02-1.47-1.34-2.58-.95l-22.84,7.92c-2.83-4.77-5.16-13.34-5.18-18.54l-.03-6.82,26.55-9.2c1.09-.38,1.69-1.18,1.49-2.2s-1.28-1.8-2.43-1.4l-25.66,8.8.26-4.98.57-5.68.89-6.48,1.6-9.44c.17-1,.2-1.92.66-2.9l29.87-10.34c1.07-.37,1.49-1.45,1.25-2.32-.28-1.02-1.38-1.56-2.53-1.16l-27.71,9.57,1.67-9.4,1.67-10.29.35-3.17.66-6.45.35-3.97.42-3.89.18-2.62.24-2.6.19-3.9.22-4.78-.05-5.77-.21-6.29-.19-4.12-.28-2.95c-.17-1.82.04-3.61-.52-5.41.09-.96-.05-1.82-.26-2.94l39.76-13.51,48.23,9.71-1.58,9.57c-.3.92-.46,1.79-.54,2.74l-1.43,8.12-1.23,7.18-.4,2.45-.71,6.41-.21,4.35-.24,2.2.04,18.6.47,3.69.66,5.58.87,8c.09.84.49,1.62.27,2.58l-24.3-8.42c-1.04-.36-2.08.37-2.28,1.13-.25.99.04,2.04,1.1,2.4l22.68,7.85c1.24.43,2.45.65,3.53,1.3.63.4.44,1.72.56,2.34l.38,2.05.41,3.26.47,4.72c.15,1.53.11,2.94.64,4.44l.12,2.01c.4.92.33,1.73.44,2.65l.42,3.29c.19,1.49.22,2.99-.09,4.47l-25.15-8.74c-1.07-.37-2.12.1-2.5.95s-.03,2.09,1.08,2.48l26.03,9.04-.57,3.63c-.1.65-.53,1.26-.3,2.01-.53.9-.5,1.82-.74,2.81-1.43,5.74-3.77,11.15-7.15,16.2l-22.48-7.74c-.92-.32-1.85.46-2.15,1.08-.35.72-.06,2.05.94,2.39l21.46,7.47-3.87,4.84-2.5,2.7-2.82,2.62c-6.37,5.56-13.94,9.2-21.98,11.62-1.81.55-3.19,1.2-5.18,1.27Z"/>
    </g>
  </g>
</svg>