<?xml version="1.0" encoding="UTF-8"?>
<svg id="_레이어_2" data-name="레이어 2" xmlns="http://www.w3.org/2000/svg" viewBox="0 0 134.81 391.92">
  <defs>
    <style>
      .cls-1 {
        fill: #71aa55;
      }

      .cls-2 {
        fill: #70aa54;
      }
    </style>
  </defs>
  <g id="_레이어_1-2" data-name="레이어 1">
    <g>
      <g>
        <path class="cls-1" d="M9.89,52.22c-1.16.2-1.68.49-2.51.33.11-1.58.53-2.9.87-4.33l2.8-11.62.82-2.8c1.29-4.42,3.53-8.37,5.84-12.35,2.43-4.19,5.55-7.59,9.21-10.7,5.35-4.56,11.5-8.17,18.43-9.62l5.32-1.12h6.58c2.08,0,3.89.49,5.82,1.19,6.14,2.23,11.6,5.52,16.5,9.86l4.75,4.62,4.06,4.35c3.33,3.57,6.3,7.3,8.99,11.36l3.55,5.35L9.89,52.22Z"/>
        <path class="cls-1" d="M26.65,127.31l-15.46,2.63c-.69-3.17-1.1-6.2-1.24-9.34l-.36-2.88,109.21-18.55,1.93,7.41.89,4.55-94.98,16.18Z"/>
        <polygon class="cls-1" points="19.09 157.99 15.74 149.39 15.09 146.5 123.91 128.02 124.77 139.99 19.09 157.99"/>
        <polygon class="cls-1" points="117.75 95.57 9.5 113.98 9.57 103.25 114.48 85.44 116.03 89.71 117.75 95.57"/>
        <path class="cls-1" d="M107.77,68.65L11.43,84.99c.44-4.18,1.08-8.33,2.06-12.41l88.65-15.07,4.29,8.46,1.34,2.68Z"/>
        <path class="cls-1" d="M14.45,68.65l.99-4.02c.51-2.07,1.21-4.01,1.88-6.04l1.35-4.11,73.96-12.57c2.58,3.9,5.14,7.83,7.52,12.16l-85.7,14.58Z"/>
        <rect class="cls-1" x="11.88" y="124.05" width="112.02" height="9.8" transform="translate(-20.61 13.17) rotate(-9.63)"/>
        <path class="cls-1" d="M125.03,154.02l-98.79,16.82c-.94-.55-1.77-1.24-2.24-2.24l-3.35-7.15,104.32-17.71.06,6.11v4.17Z"/>
        <path class="cls-1" d="M38.1,94.65l-28.35,4.83c.31-1.58.23-2.97.39-4.39l.72-6.24,98.64-16.75,3.89,9.76-75.29,12.8Z"/>
        <path class="cls-1" d="M10.5,69.31l-7.16,1.18.51-2.45,2.36-11.38,8.36-1.48-1.57,5.2c-1.1,2.89-1.86,5.74-2.5,8.93Z"/>
        <path class="cls-1" d="M109.98,52.41l-5.92,1.04c-2.27-4.2-4.72-8.09-7.43-12.24l6.61-1.09c2.58,3.98,4.73,8.01,6.75,12.29Z"/>
        <path class="cls-1" d="M15.32,158.56l-6.56,1.12c-.67-.86-1.01-1.85-1.24-2.91-1.07-2.77-1.96-5.44-2.84-8.47l6.69-1.15c.63,2.61,1.38,5.02,2.43,7.42l1.52,4Z"/>
        <path class="cls-1" d="M1.3,86.67c.08-1.01.27-1.7.12-2.56l1-7.41c.11-.78-.06-1.58.47-2.29l6.64-1.14c-.86,4.17-1.41,8.09-1.91,12.32l-6.32,1.08Z"/>
        <path class="cls-1" d="M1.03,131.65l-.54-4.11c-.22-1.71-.2-3.32-.25-5.04-.03-1.03-.42-2.01-.14-3.11l5.85-1.04.64,6.29,1,5.91-6.56,1.1Z"/>
        <path class="cls-1" d="M134.65,138.28l-6.18,1.07-.87-11.92,6.55-1.11c-.18,1.95.39,3.68.41,5.54l.09,6.42Z"/>
        <path class="cls-1" d="M131.36,109.45l-6.11,1.06c-.61-4.07-1.6-7.79-2.77-11.89l5.81-1.02c1.27,3.84,2.16,7.65,3.06,11.84Z"/>
        <path class="cls-1" d="M21.46,171.63l-7.54,1.28-3.17-7.39c-.31-.73-.63-1.39-.68-2.26l6.78-1.15,3.29,7.21,1.32,2.31Z"/>
        <polygon class="cls-1" points="111.78 67.97 108.15 60.93 106.03 56.88 111.69 55.93 117.04 67.04 111.78 67.97"/>
        <polygon class="cls-1" points="10.42 143.54 3.6 144.63 1.49 135.32 8.2 134.21 10.42 143.54"/>
        <polygon class="cls-1" points="134.62 152.41 128.82 153.36 128.71 143.14 134.81 142.12 134.71 147.07 134.62 152.41"/>
        <path class="cls-1" d="M.47,101.04c-.49-2.31.19-5.52.26-8.05l.07-2.43,6.24-1.01-.95,10.53-5.63.96Z"/>
        <polygon class="cls-1" points="121.54 94.97 120.49 91.79 118.28 84.79 124.06 83.84 127.3 93.85 121.54 94.97"/>
        <polygon class="cls-1" points=".05 115.54 .09 107.18 .36 104.86 5.82 103.96 5.83 114.59 .05 115.54"/>
        <path class="cls-1" d="M133.67,122.49l-6.49,1.2-1.19-9.53,6.08-.97,1.01,5.56c.1,1.21.15,2.33.59,3.73Z"/>
        <polygon class="cls-1" points="122.67 80.31 117.08 81.25 113.25 71.44 118.62 70.58 120.97 75.93 122.67 80.31"/>
      </g>
      <g>
        <path class="cls-2" d="M35.87,291.45l1.16-8.26.5-3.88.5-5.49.49-4.79.52-6.22.24-4.78.23-2.9v-9.81s-.24-4.08-.24-4.08l-.22-4.8c-.12-2.59-.43-5.04-.52-7.61l-.51-3.36-.56-3.22c-1.4-6.27-3.56-12.15-6.65-17.75l-2.32-4.2-4.66-8.03c-2.97-5.12-5.8-10.23-8.15-15.87l118.73-20.18c.1,5.88-.48,11.43-1.24,17.13l-3.55,26.85-1.08,5.43c-1.08,4.03-1.82,7.93-2.31,12.12l-3,17.56-1.14,6.85-.53,2.62-.48,2.39-.45,2.92-.47,3.38-.47,5.01-.33,3.22-.2,13.99.08,5.6c.03,1.86-.11,3.71.53,5.58l-85.03,10.52,1.13-5.94Z"/>
        <g>
          <path class="cls-1" d="M112.64,331.6l-74.56,9.25c-.23-3.57-.05-7.19.37-10.89l73.2-9.08c.55,3.47.96,6.96.99,10.72Z"/>
          <path class="cls-1" d="M111.2,317.15l-72.51,9c.35-3.89.97-7.7,1.87-11.44l68.35-8.47.98,4.1,1.3,6.81Z"/>
          <path class="cls-1" d="M41.8,310.79l2.11-6.24c.57-1.69,1.28-3.21,2.23-4.77l59.04-7.33,3.03,10.09-66.41,8.25Z"/>
          <path class="cls-1" d="M109.41,356.08l-66.3,8.24c-1.49-2.66-2.54-5.61-3.27-8.6l72.31-8.97c-.46,3.21-1.4,6.21-2.74,9.33Z"/>
          <path class="cls-1" d="M73.82,391.69c-1.51.25-2.72.33-4.01.07l-3.06-.62c-7.75-1.01-16.2-4.08-21.7-9.88l64.8-8c-2.97,3.86-6.45,6.27-9.96,8.88-4.79,3.12-9.85,5.52-15.35,7.14l-3.16,1.16-7.56,1.24Z"/>
          <path class="cls-1" d="M112.6,342.91l-73.39,9.11-.92-7.41,74.51-9.24c.16,2.58.09,4.98-.19,7.55Z"/>
          <path class="cls-1" d="M99.22,370.75l-46.07,5.74c-2.85-2.55-4.99-5.51-6.85-8.81l61.11-7.57c-1.9,3.93-4.89,7.99-8.19,10.63Z"/>
          <path class="cls-1" d="M120.92,297.26c.29,1.32.37,2.46.24,3.71l-9.22,1.09-2.97-10.07,11.23-1.41.53,3.9c-.07.9-.02,1.79.19,2.78Z"/>
          <polygon class="cls-1" points="123.38 315.59 119.89 316.13 114.98 316.7 112.69 305.83 121.97 304.67 122.84 311.51 123.38 315.59"/>
          <path class="cls-1" d="M124.75,327.22c.33.96.62,1.84.48,2.76l-8.86,1.18c-.03-3.65-.46-7.09-.99-10.77l8.32-1.05.71,5.29c.11.82.49,1.59.34,2.6Z"/>
          <path class="cls-1" d="M106.02,369.88c.24-1,.84-1.75,1.42-2.54,1.82-2.49,3.19-5.09,4.59-7.82l7.91-.82c-1.79,3.84-4,7.15-6.49,10.29l-7.43.88Z"/>
          <path class="cls-1" d="M114.31,355.58c-.3.04-.6,0-.68-.14-.07-.13.08-.35.3-.51l2.21-8.63,8.1-1c-.54,3.12-1.32,6.2-2.52,9.27l-7.41,1.02Z"/>
          <path class="cls-1" d="M34.64,311.73c-.97.15-1.91.23-2.77.16l2.03-10.6,7.6-.9-3.85,10.87-3,.47Z"/>
          <path class="cls-1" d="M124.87,341.33l-8.47,1.11.15-7.59,8.94-1.08c.16,1.62-.05,3.05-.2,4.6-.1.96.14,1.93-.41,2.96Z"/>
          <path class="cls-1" d="M28.6,341.97l.11-6.09.44-4.7,5.5-.74c-.37,3.69-.62,7.14-.29,10.82l-5.76.71Z"/>
          <polygon class="cls-1" points="34.8 326.65 29.45 327.23 31.1 315.92 36.56 315.28 35.7 319.82 34.8 326.65"/>
          <path class="cls-1" d="M42.33,377.85c-.78.11-1.12-.32-1.54-.84-1.99-2.49-3.95-4.84-5.68-7.8l5.97-.89,6.56,8.79-5.31.73Z"/>
          <path class="cls-1" d="M39.06,364.71l-6.02.82c-1.24-2.77-2.33-5.55-3.02-8.55l6.08-.8c.68,2.87,1.59,5.53,2.96,8.53Z"/>
          <path class="cls-1" d="M29.28,353.3l-.5-3.88c-.16-1.21-.28-2.34-.16-3.6l5.92-.78.94,7.46-6.19.8Z"/>
        </g>
      </g>
    </g>
  </g>
</svg>