<?xml version="1.0" encoding="UTF-8"?>
<svg id="_레이어_2" data-name="레이어 2" xmlns="http://www.w3.org/2000/svg" viewBox="0 0 134.92 392.5">
  <defs>
    <style>
      .cls-1 {
        fill: #02ade6;
      }

      .cls-2 {
        fill: #03ade6;
      }
    </style>
  </defs>
  <g id="_레이어_1-2" data-name="레이어 1">
    <g>
      <path class="cls-2" d="M36.72,285.03l.43-3.83.43-3.03.66-7.83.45-5.18.22-2.16.19-3.5.23-5.85c.07-1.65.1-3.18.04-4.84l-.21-6.34-.14-4.42c-.02-.65-.31-1.28-.15-1.99-.24-1.62-.44-3.23-.12-4.76l95.25-63.73-.65,6.89-.61,4.58-3.23,24.04c-1.9,6.45-2.81,12.8-3.67,19.4l-2.02,11.42-1.51,8.9c-.2,1.18-.32,2.28-.68,3.46l-88.34,59.13c-.36-.7.11-1.22.2-1.74l1.62-8.57.7-3.87.9-6.18ZM47.13,277.89c.18,1.25,2.04,2.38,3.24,1.57l61.81-41.33c1.29-.86,2.03-1.71,2.19-3.34l3.45-35.13.5-4.28c.12-.99.05-1.82-.77-2.38-.74-.51-1.53-.37-2.38.2l-68.79,46.03c-.6.4-.92,1.21-.81,1.84l1.51,8.69c.86,4.94,1.02,18.02.26,23.02-.25,1.68-.5,3.22-.22,5.11Z"/>
      <path class="cls-1" d="M5.89,58.27l4.26-18.34c1.03-4.42,2.4-8.47,4.4-12.54s4-8.05,7.09-11.33l2.43-2.59c3.76-3.59,7.76-6.67,12.42-9.04,3.75-1.9,7.72-2.96,11.85-3.82C49.85.29,51.16-.02,52.72,0c1.89.03,3.73.09,5.63.21,3.79.25,10.11,3.08,13.51,5.17s6.24,4.18,9,6.82c.45.43,1.09.64,1.38,1.34L4.46,65.59c.21-2.51.84-4.78,1.43-7.32Z"/>
      <path class="cls-1" d="M127.35,93.36L12.53,170.21c-1.92-4.17-3.48-8.51-5.07-12.95l115.29-77.16c1.83,4.37,3.21,8.77,4.6,13.26Z"/>
      <path class="cls-1" d="M134.27,162.92l-96.01,64.26c-.5-.79-.39-1.6-.52-2.4-.68-4.06-1.94-7.97-3.37-11.99l100.44-67.22v13.32c0,1.38-.04,2.63-.54,4.02Z"/>
      <path class="cls-1" d="M123.91,318.12l.8,7.35-81.52,54.56c-1.86-1.71-3.25-3.67-4.76-5.55-1.78-2.22-3.38-4.52-4.72-7.2l88.77-59.42c.44,1.24.54,2.46.48,3.71.58.79.42,1.75.51,2.59l.43,3.97Z"/>
      <path class="cls-1" d="M121.62,300.92c.12,1.07.57,1.98.14,2.95l-89.38,59.82c-.63-.21-.64-.7-.83-1.22-1.65-4.52-2.74-9.28-2.87-14.13l91.13-60.99c.75,1.64.67,3.53.87,5.31l.94,8.27Z"/>
      <path class="cls-1" d="M2.19,139.14l-1.08-5.28-.27-2.36c-.22-1.88-.59-3.69-.35-5.64L110.13,52.49l4.92,10.13c.14.29.15.56.1.8-.07.32-.32.33-.7.59L2.19,139.14Z"/>
      <path class="cls-1" d="M133.84,123.28L26.17,195.34c-.32.22-.63.26-.84.16-.17-.08-.19-.42-.36-.67-1.88-2.89-3.6-5.9-5.12-9.14l111.87-74.87,1.28,6.76c.34.93.35,1.86.46,2.83s.55,1.6.37,2.88Z"/>
      <path class="cls-1" d="M134.92,141.02l-102,68.27-4.99-9.37c-.2-.38-.6-.59-.26-1.11l106.62-71.36.6,4.55.04,9.02Z"/>
      <polygon class="cls-2" points="121.33 76.58 6.26 153.6 4.34 147.79 3.04 143.04 116.95 66.8 119.57 72.23 121.33 76.58"/>
      <path class="cls-1" d="M1.33,86.86c-.12-2.11.38-3.96.55-5.93.11-1.27.22-2.45.42-3.73l.45-2.82c.2-1.25.11-2.47.74-3.65L84.89,16.25l5.54,5.9,1.41,1.67c.67.75,1.4,1.43,1.74,2.54L1.29,88.11c-.34-.18-.29-.8.04-1.25Z"/>
      <polygon class="cls-2" points="108.5 49.11 .07 121.68 0 108.91 103.19 39.85 108.5 49.11"/>
      <path class="cls-1" d="M125.74,337.27c-.37,3.87-.84,7.57-1.85,11.25l-62.81,42.06c-5.56-1.28-10.85-3.96-15.23-7.86l79.45-53.18.51,2.45-.08,5.27Z"/>
      <path class="cls-2" d="M18.16,182.35c-1.1-1.55-1.66-3.2-2.4-4.78-.61-1.29-1.3-2.54-1.64-3.96l114.21-76.42,1.96,6.81.73,2.82L18.16,182.35Z"/>
      <path class="cls-2" d="M119,266.4l-89.13,59.65c-.38-1.32.37-2.67.25-4.06l1.49-8.76c.22-.62.02-2.23.77-2.74l88.3-59.13c.05,1.37-.12,2.82-.34,4.23-.34,2.14-.32,4.15-.44,6.31l-.17,3.05c-.03.57-.07,1.01-.73,1.45Z"/>
      <path class="cls-2" d="M28.8,343.78l-.08-7.87.16-2.85c.04-.79.01-1.48.47-2.18l90.08-60.28.09,12.47-90.71,60.71Z"/>
      <path class="cls-2" d="M.45,104.13c-.44-1.53-.2-2.85-.09-4.18l.14-5.93c.02-.66.32-1.14.93-1.53L95.96,29.22l5.26,7.49L.45,104.13Z"/>
      <path class="cls-2" d="M83.53,390.39c-1.96.59-3.48,1.3-5.66,1.35l-2.34.41c-3.09.55-6.13.54-9.22-.61l56.05-37.51c-1.41,4.54-3.57,8.66-6.3,12.42l-2.11,2.91-5.03,5.99-3.11,3.02c-6.42,5.71-14.06,9.53-22.27,12.01Z"/>
      <path class="cls-1" d="M51.5,268.86l-.04-10.92c-.02-4.46-.47-8.74-1.42-13.09l-.55-3.19,64.68-43.28-3.53,36.26-59.67,39.91.53-5.69Z"/>
    </g>
  </g>
</svg>