<?xml version="1.0" encoding="UTF-8"?>
<svg id="_레이어_2" data-name="레이어 2" xmlns="http://www.w3.org/2000/svg" viewBox="0 0 134.84 392.4">
  <defs>
    <style>
      .cls-1 {
        fill: #e9b6cb;
      }
    </style>
  </defs>
  <g id="_레이어_1-2" data-name="레이어 1">
    <g>
      <g>
        <g>
          <path class="cls-1" d="M123.71,348.93l-47.65-21.95c-.86-.39-1.8.17-2.21.79l-44.56,26.52-.36-2.54-.24-5.21c-.07-1.6-.46-3.17.05-4.76v-6.44s48.24-28.71,48.24-28.71l30.62,14.11,4.4,1.9c.32,1.03,1.13,1.51,2.04,1.93l11.14,5.11.49,3.14c.37,1.2.15,2.38.03,3.6-.4,4.18-.91,8.27-1.99,12.5Z"/>
          <path class="cls-1" d="M115.42,367.05l-35.63-16.47c-1.16-.53-2.1-.75-3.2.11l-38.69,23.04c-3.75-4.68-6.24-9.94-7.74-15.73l45.64-27.16,46.87,21.61c-.16,1.26-.68,2.36-1.22,3.53-1.45,3.97-3.52,7.55-6.03,11.06Z"/>
          <path class="cls-1" d="M110.03,317.89l-31.36-14.54c-1.45-.67-2.75-.95-3.9.39l-45.51,27.05c-.34-1.15.06-2.35.23-3.55l.37-2.68.71-4.69c.17-1.12.16-2.23.68-3.28,0-.9.02-1.66.31-2.53l47.07-28.01,43.72,20.18c-.03,1.2.14,2.21.42,3.31l.9,6.26.33,4.65.58,4.95-8.84-4.03c-1.72-1.52-3.51-2.63-5.7-3.45Z"/>
          <path class="cls-1" d="M80.97,370.59c-1.18-.76-2.26-.7-3.39-.03l-26.57,15.8c-1.65-.69-2.82-1.8-4.23-2.82l-6.71-6.88,38.22-22.74,34.94,16.1c-3.02,4.03-6.44,7.53-10.38,10.67l-8.49-3.92-13.39-6.18Z"/>
          <path class="cls-1" d="M77.75,391.52c-4.02,1.23-7.37,1.1-11.34.07l-3.06-.44c-.69-.1-1.49-.06-2.1-.57-2.22-.55-4.28-1.13-6.58-2.17l24.56-14.62,20.11,9.3c-5.04,3.32-10.48,5.61-16.23,7.25-1.7.87-3.45,1.27-5.36,1.18Z"/>
        </g>
        <path class="cls-1" d="M121.58,301.46c.14.31-.12.37-.4.2l-40.87-18.85c-.75-.34-1.46-.62-2.27-.31l-1.56.6-43.68,25.95c-.25.23-.44-.09-.32-.38l1.9-9.93.65-3.03.45-2.56.43-2.25,1.16-8.57.46-3.73.44-4.96.44-4.77.22-2.81.37-3.68.35-7.31v-8.66s-.38-9.43-.38-9.43l-.33-3.73-.24-3.44-.41-3.47c-1.12-7.83-3.88-15.13-7.64-22.05-2.27-4.18-4.49-8.1-6.98-12.14l-5.19-9.67c-.22-.54-.09-.64.45-.48l19.22,8.88c.91.02,1.49.32,2.15.95l30.97,14.3c1.41.65,2.21.46,3.47-.29l59.08-35.15c.42.89-.04,1.84-.14,2.76l-.26,2.33-.39,2.63-.3,2.63-1.78,12.97-.68,5.12-1.24,6.61-1.32,5.89-1.08,6.67-.36,2.83-1.25,7.6-2.05,10.67-.44,3.3-.45,2.6-.57,2.72-.4,2.62-.69,5.6-.29,4.6-.26,2.81-.14,3.28-.02,16.2.36,2.66.44,3.91.53,4.63.46,4.11.36,3.03Z"/>
      </g>
      <g>
        <path class="cls-1" d="M57.17,50.4c-.96.57-.88.32-1.68-.05L13.01,30.78c2.91-6.69,6.31-12.93,11.66-17.87,2.62-2.49,5.37-4.57,8.43-6.56,4.94-3.21,10.49-4.8,16.23-5.93,2.42-.48,4.72-.49,7.18-.3s4.53.42,6.76,1.27c5.78,2.2,11.04,5.14,15.72,9.25,2.38,2.09,4.65,4.11,6.66,6.56l1.84,1.88c2.68,2.73,5.19,5.59,7.38,8.88l-37.7,22.45Z"/>
        <path class="cls-1" d="M5.86,152.16c-1.03-2.23-1.62-4.58-2.2-6.94l-1.81-7.44-.98-5.61,39.21,18.05,5.97,2.78,17.69,8.09,6.15,2.55c1.02.42,1.5.34,2.45-.23l61.66-36.69c.55.64.31,1.53.42,2.37.38,2.93.43,5.75.41,8.71l-.05,6.92-63.53,37.79-2.06-1.1-54.14-24.94c-.9-.42-1.49-.48-2.37-.92l-6.81-3.38Z"/>
        <path class="cls-1" d="M.08,107.41l.1-3.82.36-9.43.34-3.8,63.93,29.44c2.67,1.23,2.8.39,4.41-.57l55.65-33.1c1.89,5.12,3.23,10.25,4.63,15.46.18.66.55,1.17.26,1.89l-60.44,35.93-5.61-2.67L.08,107.41Z"/>
        <path class="cls-1" d="M42.95,147.56l-1.66-.75L.48,127.96l-.29-4.65c-.25-4.01-.17-7.95-.19-11.93l63.84,29.41,5.83,2.66,61.17-36.37,1.3,6.05,1.62,9.52-63.42,37.69-2.43-1.3-24.96-11.48Z"/>
        <path class="cls-1" d="M1.49,83.82c.11-1.13.22-2.08.36-3.1l.69-4.97.45-3.21c.12-.88.48-1.72.36-2.68l59.96,27.61c1.12.52,1.95.62,2.98-.04l50.78-30.22,4.87,11.09,1.72,4.33-56.15,33.4c-.97.58-1.03.59-2.09.1L1.22,86.52l.27-2.7Z"/>
        <path class="cls-1" d="M4.67,63.96l2.76-12.74,50.1,23.13c1.01.47,1.53.69,2.62.02l46.84-27.85c3.08,5.81,5.8,11.57,8.53,17.42l-50.79,30.21L4.43,66.35c-.26-.82-.06-1.54.24-2.39Z"/>
        <path class="cls-1" d="M18.31,177.83c-1-.46-1.61-.91-2.78-.7l-4.8-11.17-3.27-8.99c1.94.83,3.42,1.59,5.22,2.06.47.47,1.01.79,1.72,1.12l54.41,25.08,3.03,1.15,62.93-37.44v5.12s-.1,6.43-.1,6.43l-.59,5.63-61.63,36.67-31.07-14.3c-.68-.31-1.36-.15-1.84-.89l-21.23-9.78Z"/>
        <path class="cls-1" d="M8.2,47.79c1.38-4.36,1.96-9.01,3.56-13.58l42.05,19.37c.55.25.99.15,1.43.57.63.61,1.42.61,2.29.24l39.55-23.5c2.94,4.17,5.66,8.12,8.08,12.5l-45.33,26.95c-.79.71-1.37.41-2.21.02L12.67,49.66c-1.58-.73-2.82-1.51-4.47-1.87Z"/>
      </g>
    </g>
  </g>
</svg>